AC-Jade variable.glyphspackage
{
color = (99,255,209,255);
glyphname = C;
layers = (
{
background = {
shapes = (
{
closed = 1;
nodes = (
(332,90,o),
(356,143,o),
(356,335,cs),
(356,527,o),
(332,580,o),
(243,580,cs),
(155,580,o),
(131,527,o),
(131,335,cs),
(131,143,o),
(155,90,o),
(243,90,cs)
);
},
{
closed = 1;
nodes = (
(77,-10,o),
(20,78,o),
(20,335,cs),
(20,592,o),
(77,680,o),
(243,680,cs),
(410,680,o),
(467,592,o),
(467,335,cs),
(467,78,o),
(410,-10,o),
(243,-10,cs)
);
}
);
};
layerId = master01;
shapes = (
{
closed = 1;
nodes = (
(346,-10,o),
(388,1,o),
(431,18,c),
(434,23,l),
(412,108,l),
(408,110,l),
(361,97,o),
(320,90,o),
(280,90,c),
(205,90,o),
(172,170,o),
(172,346,cs),
(172,518,o),
(208,579,o),
(272,579,cs),
(326,579,o),
(359,572,o),
(400,557,c),
(404,559,l),
(425,654,l),
(422,659,l),
(385,671,o),
(330,679,o),
(275,679,cs),
(137,679,o),
(60,609,o),
(60,345,cs),
(60,82,o),
(135,-9,o),
(261,-10,c)
);
}
);
width = 464;
},
{
background = {
shapes = (
{
closed = 1;
nodes = (
(332,90,o),
(356,143,o),
(356,335,cs),
(356,527,o),
(332,580,o),
(243,580,cs),
(155,580,o),
(131,527,o),
(131,335,cs),
(131,143,o),
(155,90,o),
(243,90,cs)
);
},
{
closed = 1;
nodes = (
(77,-10,o),
(20,78,o),
(20,335,cs),
(20,592,o),
(77,680,o),
(243,680,cs),
(410,680,o),
(467,592,o),
(467,335,cs),
(467,78,o),
(410,-10,o),
(243,-10,cs)
);
}
);
};
layerId = m002;
shapes = (
{
closed = 1;
nodes = (
(346,-10,o),
(388,1,o),
(431,18,c),
(434,23,l),
(412,108,l),
(408,110,l),
(361,97,o),
(320,90,o),
(280,90,c),
(205,90,o),
(172,170,o),
(172,346,cs),
(172,518,o),
(208,579,o),
(272,579,cs),
(326,579,o),
(359,572,o),
(400,557,c),
(404,559,l),
(425,654,l),
(422,659,l),
(385,671,o),
(330,679,o),
(275,679,cs),
(137,679,o),
(60,609,o),
(60,345,cs),
(60,82,o),
(135,-9,o),
(261,-10,c)
);
}
);
width = 464;
},
{
background = {
shapes = (
{
closed = 1;
nodes = (
(332,90,o),
(356,143,o),
(356,335,cs),
(356,527,o),
(332,580,o),
(243,580,cs),
(155,580,o),
(131,527,o),
(131,335,cs),
(131,143,o),
(155,90,o),
(243,90,cs)
);
},
{
closed = 1;
nodes = (
(77,-10,o),
(20,78,o),
(20,335,cs),
(20,592,o),
(77,680,o),
(243,680,cs),
(410,680,o),
(467,592,o),
(467,335,cs),
(467,78,o),
(410,-10,o),
(243,-10,cs)
);
}
);
};
layerId = m003;
shapes = (
{
closed = 1;
nodes = (
(346,-10,o),
(388,1,o),
(431,18,c),
(434,23,l),
(412,108,l),
(408,110,l),
(361,97,o),
(320,90,o),
(280,90,c),
(205,90,o),
(172,170,o),
(172,346,cs),
(172,518,o),
(208,579,o),
(272,579,cs),
(326,579,o),
(359,572,o),
(400,557,c),
(404,559,l),
(425,654,l),
(422,659,l),
(385,671,o),
(330,679,o),
(275,679,cs),
(137,679,o),
(60,609,o),
(60,345,cs),
(60,82,o),
(135,-9,o),
(261,-10,c)
);
}
);
width = 464;
},
{
background = {
shapes = (
{
closed = 1;
nodes = (
(332,90,o),
(356,143,o),
(356,335,cs),
(356,527,o),
(332,580,o),
(243,580,cs),
(155,580,o),
(131,527,o),
(131,335,cs),
(131,143,o),
(155,90,o),
(243,90,cs)
);
},
{
closed = 1;
nodes = (
(77,-10,o),
(20,78,o),
(20,335,cs),
(20,592,o),
(77,680,o),
(243,680,cs),
(410,680,o),
(467,592,o),
(467,335,cs),
(467,78,o),
(410,-10,o),
(243,-10,cs)
);
}
);
};
layerId = m004;
shapes = (
{
closed = 1;
nodes = (
(346,-10,o),
(388,1,o),
(431,18,c),
(434,23,l),
(412,108,l),
(408,110,l),
(361,97,o),
(320,90,o),
(280,90,c),
(205,90,o),
(172,170,o),
(172,346,cs),
(172,518,o),
(208,579,o),
(272,579,cs),
(326,579,o),
(359,572,o),
(400,557,c),
(404,559,l),
(425,654,l),
(422,659,l),
(385,671,o),
(330,679,o),
(275,679,cs),
(137,679,o),
(60,609,o),
(60,345,cs),
(60,82,o),
(135,-9,o),
(261,-10,c)
);
}
);
width = 464;
}
);
unicode = 67;
}
{
color = (99,255,209,255);
glyphname = D;
layers = (
{
background = {
shapes = (
{
closed = 1;
nodes = (
(372,-9,o),
(447,82,o),
(447,345,cs),
(447,609,o),
(370,679,o),
(232,679,cs),
(181,679,o),
(130,670,o),
(95,659,c),
(92,654,l),
(113,559,l),
(117,557,l),
(155,571,o),
(185,579,o),
(235,579,cs),
(299,579,o),
(335,518,o),
(335,346,cs),
(335,170,o),
(302,90,o),
(227,90,c),
(190,90,o),
(153,98,o),
(109,110,c),
(105,108,l),
(83,23,l),
(86,18,l),
(127,2,o),
(166,-10,o),
(246,-10,c)
);
}
);
};
layerId = master01;
shapes = (
{
closed = 1;
nodes = (
(220,0,ls),
(387,0,o),
(470,110,o),
(470,331,cs),
(470,561,o),
(399,675,o),
(257,675,cs),
(65,675,l),
(60,666,l),
(65,551,o),
(67,442,o),
(67,337,cs),
(67,234,o),
(65,127,o),
(60,12,c),
(65,0,l)
);
},
{
closed = 1;
nodes = (
(357,501,o),
(357,331,cs),
(357,168,o),
(319,96,o),
(232,96,cs),
(133,96,l),
(172,66,l),
(172,114,o),
(167,194,o),
(167,339,cs),
(167,471,o),
(169,553,o),
(172,606,c),
(143,576,l),
(245,576,ls),
(323,576,o)
);
}
);
width = 520;
},
{
background = {
shapes = (
{
closed = 1;
nodes = (
(372,-9,o),
(447,82,o),
(447,345,cs),
(447,609,o),
(370,679,o),
(232,679,cs),
(181,679,o),
(130,670,o),
(95,659,c),
(92,654,l),
(113,559,l),
(117,557,l),
(155,571,o),
(185,579,o),
(235,579,cs),
(299,579,o),
(335,518,o),
(335,346,cs),
(335,170,o),
(302,90,o),
(227,90,c),
(190,90,o),
(153,98,o),
(109,110,c),
(105,108,l),
(83,23,l),
(86,18,l),
(127,2,o),
(166,-10,o),
(246,-10,c)
);
}
);
};
layerId = m002;
shapes = (
{
closed = 1;
nodes = (
(220,0,ls),
(387,0,o),
(470,110,o),
(470,331,cs),
(470,561,o),
(399,675,o),
(257,675,cs),
(65,675,l),
(60,666,l),
(65,551,o),
(67,442,o),
(67,337,cs),
(67,234,o),
(65,127,o),
(60,12,c),
(65,0,l)
);
},
{
closed = 1;
nodes = (
(357,501,o),
(357,331,cs),
(357,168,o),
(319,96,o),
(232,96,cs),
(133,96,l),
(172,66,l),
(172,114,o),
(167,194,o),
(167,339,cs),
(167,471,o),
(169,553,o),
(172,606,c),
(143,576,l),
(245,576,ls),
(323,576,o)
);
}
);
width = 520;
},
{
background = {
shapes = (
{
closed = 1;
nodes = (
(372,-9,o),
(447,82,o),
(447,345,cs),
(447,609,o),
(370,679,o),
(232,679,cs),
(181,679,o),
(130,670,o),
(95,659,c),
(92,654,l),
(113,559,l),
(117,557,l),
(155,571,o),
(185,579,o),
(235,579,cs),
(299,579,o),
(335,518,o),
(335,346,cs),
(335,170,o),
(302,90,o),
(227,90,c),
(190,90,o),
(153,98,o),
(109,110,c),
(105,108,l),
(83,23,l),
(86,18,l),
(127,2,o),
(166,-10,o),
(246,-10,c)
);
}
);
};
layerId = m003;
shapes = (
{
closed = 1;
nodes = (
(220,0,ls),
(387,0,o),
(470,110,o),
(470,331,cs),
(470,561,o),
(399,675,o),
(257,675,cs),
(65,675,l),
(60,666,l),
(65,551,o),
(67,442,o),
(67,337,cs),
(67,234,o),
(65,127,o),
(60,12,c),
(65,0,l)
);
},
{
closed = 1;
nodes = (
(357,501,o),
(357,331,cs),
(357,168,o),
(319,96,o),
(232,96,cs),
(133,96,l),
(172,66,l),
(172,114,o),
(167,194,o),
(167,339,cs),
(167,471,o),
(169,553,o),
(172,606,c),
(143,576,l),
(245,576,ls),
(323,576,o)
);
}
);
width = 520;
},
{
background = {
shapes = (
{
closed = 1;
nodes = (
(372,-9,o),
(447,82,o),
(447,345,cs),
(447,609,o),
(370,679,o),
(232,679,cs),
(181,679,o),
(130,670,o),
(95,659,c),
(92,654,l),
(113,559,l),
(117,557,l),
(155,571,o),
(185,579,o),
(235,579,cs),
(299,579,o),
(335,518,o),
(335,346,cs),
(335,170,o),
(302,90,o),
(227,90,c),
(190,90,o),
(153,98,o),
(109,110,c),
(105,108,l),
(83,23,l),
(86,18,l),
(127,2,o),
(166,-10,o),
(246,-10,c)
);
}
);
};
layerId = m004;
shapes = (
{
closed = 1;
nodes = (
(220,0,ls),
(387,0,o),
(470,110,o),
(470,331,cs),
(470,561,o),
(399,675,o),
(257,675,cs),
(65,675,l),
(60,666,l),
(65,551,o),
(67,442,o),
(67,337,cs),
(67,234,o),
(65,127,o),
(60,12,c),
(65,0,l)
);
},
{
closed = 1;
nodes = (
(357,501,o),
(357,331,cs),
(357,168,o),
(319,96,o),
(232,96,cs),
(133,96,l),
(172,66,l),
(172,114,o),
(167,194,o),
(167,339,cs),
(167,471,o),
(169,553,o),
(172,606,c),
(143,576,l),
(245,576,ls),
(323,576,o)
);
}
);
width = 520;
}
);
metricRight = "=O";
unicode = 68;
}
{
color = (99,255,209,255);
glyphname = F;
layers = (
{
layerId = master01;
shapes = (
{
closed = 1;
nodes = (
(151,0,o),
(96,0,o),
(65,-2,c),
(60,8,l),
(60,8,o),
(76,200,o),
(76,355,cs),
(76,490,o),
(67,658,o),
(67,658,c),
(72,668,l),
(118,669,o),
(153,666,o),
(246,666,c),
(340,666,o),
(380,668,o),
(402,668,c),
(407,658,l),
(407,572,l),
(402,563,l),
(402,563,o),
(259,571,o),
(151,571,c),
(185,615,l),
(180,576,o),
(177,509,o),
(177,363,cs),
(177,153,o),
(181,101,o),
(191,8,c),
(184,-2,l)
);
},
{
closed = 1;
nodes = (
(117,375,l),
(216,375,o),
(338,383,o),
(338,383,c),
(348,379,l),
(348,287,l),
(338,283,l),
(338,283,o),
(219,291,o),
(117,291,c)
);
}
);
width = 427;
},
{
layerId = m002;
shapes = (
{
closed = 1;
nodes = (
(151,0,o),
(96,0,o),
(65,-2,c),
(60,8,l),
(60,8,o),
(76,200,o),
(76,355,cs),
(76,490,o),
(67,658,o),
(67,658,c),
(72,668,l),
(118,669,o),
(153,666,o),
(246,666,c),
(340,666,o),
(380,668,o),
(402,668,c),
(407,658,l),
(407,572,l),
(402,563,l),
(402,563,o),
(259,571,o),
(151,571,c),
(185,615,l),
(180,576,o),
(177,509,o),
(177,363,cs),
(177,153,o),
(181,101,o),
(191,8,c),
(184,-2,l)
);
},
{
closed = 1;
nodes = (
(117,375,l),
(216,375,o),
(338,383,o),
(338,383,c),
(348,379,l),
(348,287,l),
(338,283,l),
(338,283,o),
(219,291,o),
(117,291,c)
);
}
);
width = 427;
},
{
layerId = m003;
shapes = (
{
closed = 1;
nodes = (
(151,0,o),
(96,0,o),
(65,-2,c),
(60,8,l),
(60,8,o),
(76,200,o),
(76,355,cs),
(76,490,o),
(67,658,o),
(67,658,c),
(72,668,l),
(118,669,o),
(153,666,o),
(246,666,c),
(340,666,o),
(380,668,o),
(402,668,c),
(407,658,l),
(407,572,l),
(402,563,l),
(402,563,o),
(259,571,o),
(151,571,c),
(185,615,l),
(180,576,o),
(177,509,o),
(177,363,cs),
(177,153,o),
(181,101,o),
(191,8,c),
(184,-2,l)
);
},
{
closed = 1;
nodes = (
(117,375,l),
(216,375,o),
(338,383,o),
(338,383,c),
(348,379,l),
(348,287,l),
(338,283,l),
(338,283,o),
(219,291,o),
(117,291,c)
);
}
);
width = 427;
},
{
layerId = m004;
shapes = (
{
closed = 1;
nodes = (
(151,0,o),
(96,0,o),
(65,-2,c),
(60,8,l),
(60,8,o),
(76,200,o),
(76,355,cs),
(76,490,o),
(67,658,o),
(67,658,c),
(72,668,l),
(118,669,o),
(153,666,o),
(246,666,c),
(340,666,o),
(380,668,o),
(402,668,c),
(407,658,l),
(407,572,l),
(402,563,l),
(402,563,o),
(259,571,o),
(151,571,c),
(185,615,l),
(180,576,o),
(177,509,o),
(177,363,cs),
(177,153,o),
(181,101,o),
(191,8,c),
(184,-2,l)
);
},
{
closed = 1;
nodes = (
(117,375,l),
(216,375,o),
(338,383,o),
(338,383,c),
(348,379,l),
(348,287,l),
(338,283,l),
(338,283,o),
(219,291,o),
(117,291,c)
);
}
);
width = 427;
}
);
unicode = 70;
}
{
color = (99,255,209,255);
glyphname = G;
layers = (
{
background = {
shapes = (
{
closed = 1;
nodes = (
(311,-10,o),
(350,2,o),
(391,18,c),
(394,23,l),
(372,108,l),
(368,110,l),
(324,98,o),
(287,90,o),
(250,90,c),
(175,90,o),
(142,170,o),
(142,346,cs),
(142,518,o),
(178,579,o),
(242,579,cs),
(292,579,o),
(322,571,o),
(360,557,c),
(364,559,l),
(385,654,l),
(382,659,l),
(347,670,o),
(296,679,o),
(245,679,cs),
(107,679,o),
(30,609,o),
(30,345,cs),
(30,82,o),
(105,-9,o),
(231,-10,c)
);
}
);
};
layerId = master01;
shapes = (
{
closed = 1;
nodes = (
(171,144,o),
(218,89,o),
(287,90,c),
(344,90,o),
(381,106,o),
(412,124,c),
(351,43,l),
(357,85,o),
(365,122,o),
(365,206,c),
(365,260,o),
(363,301,o),
(355,330,c),
(381,281,l),
(270,281,l),
(265,286,l),
(265,366,l),
(270,371,l),
(284,370,o),
(318,369,o),
(362,369,cs),
(402,369,o),
(438,370,o),
(457,371,c),
(462,366,l),
(461,332,o),
(457,286,o),
(457,234,c),
(457,134,o),
(460,93,o),
(462,53,c),
(461,48,l),
(396,2,o),
(332,-10,o),
(281,-10,cs),
(143,-10,o),
(60,64,o),
(60,335,cs),
(60,606,o),
(140,679,o),
(281,679,cs),
(333,679,o),
(389,668,o),
(423,660,c),
(426,655,l),
(405,560,l),
(401,558,l),
(362,568,o),
(332,579,o),
(279,579,c),
(211,579,o),
(171,525,o),
(171,335,cs)
);
}
);
width = 512;
},
{
background = {
shapes = (
{
closed = 1;
nodes = (
(311,-10,o),
(350,2,o),
(391,18,c),
(394,23,l),
(372,108,l),
(368,110,l),
(324,98,o),
(287,90,o),
(250,90,c),
(175,90,o),
(142,170,o),
(142,346,cs),
(142,518,o),
(178,579,o),
(242,579,cs),
(292,579,o),
(322,571,o),
(360,557,c),
(364,559,l),
(385,654,l),
(382,659,l),
(347,670,o),
(296,679,o),
(245,679,cs),
(107,679,o),
(30,609,o),
(30,345,cs),
(30,82,o),
(105,-9,o),
(231,-10,c)
);
}
);
};
layerId = m002;
shapes = (
{
closed = 1;
nodes = (
(171,144,o),
(218,89,o),
(287,90,c),
(344,90,o),
(381,106,o),
(412,124,c),
(351,43,l),
(357,85,o),
(365,122,o),
(365,206,c),
(365,260,o),
(363,301,o),
(355,330,c),
(381,281,l),
(270,281,l),
(265,286,l),
(265,366,l),
(270,371,l),
(284,370,o),
(318,369,o),
(362,369,cs),
(402,369,o),
(438,370,o),
(457,371,c),
(462,366,l),
(461,332,o),
(457,286,o),
(457,234,c),
(457,134,o),
(460,93,o),
(462,53,c),
(461,48,l),
(396,2,o),
(332,-10,o),
(281,-10,cs),
(143,-10,o),
(60,64,o),
(60,335,cs),
(60,606,o),
(140,679,o),
(281,679,cs),
(333,679,o),
(389,668,o),
(423,660,c),
(426,655,l),
(405,560,l),
(401,558,l),
(362,568,o),
(332,579,o),
(279,579,c),
(211,579,o),
(171,525,o),
(171,335,cs)
);
}
);
width = 512;
},
{
background = {
shapes = (
{
closed = 1;
nodes = (
(311,-10,o),
(350,2,o),
(391,18,c),
(394,23,l),
(372,108,l),
(368,110,l),
(324,98,o),
(287,90,o),
(250,90,c),
(175,90,o),
(142,170,o),
(142,346,cs),
(142,518,o),
(178,579,o),
(242,579,cs),
(292,579,o),
(322,571,o),
(360,557,c),
(364,559,l),
(385,654,l),
(382,659,l),
(347,670,o),
(296,679,o),
(245,679,cs),
(107,679,o),
(30,609,o),
(30,345,cs),
(30,82,o),
(105,-9,o),
(231,-10,c)
);
}
);
};
layerId = m003;
shapes = (
{
closed = 1;
nodes = (
(171,144,o),
(218,89,o),
(287,90,c),
(344,90,o),
(381,106,o),
(412,124,c),
(351,43,l),
(357,85,o),
(365,122,o),
(365,206,c),
(365,260,o),
(363,301,o),
(355,330,c),
(381,281,l),
(270,281,l),
(265,286,l),
(265,366,l),
(270,371,l),
(284,370,o),
(318,369,o),
(362,369,cs),
(402,369,o),
(438,370,o),
(457,371,c),
(462,366,l),
(461,332,o),
(457,286,o),
(457,234,c),
(457,134,o),
(460,93,o),
(462,53,c),
(461,48,l),
(396,2,o),
(332,-10,o),
(281,-10,cs),
(143,-10,o),
(60,64,o),
(60,335,cs),
(60,606,o),
(140,679,o),
(281,679,cs),
(333,679,o),
(389,668,o),
(423,660,c),
(426,655,l),
(405,560,l),
(401,558,l),
(362,568,o),
(332,579,o),
(279,579,c),
(211,579,o),
(171,525,o),
(171,335,cs)
);
}
);
width = 512;
},
{
background = {
shapes = (
{
closed = 1;
nodes = (
(311,-10,o),
(350,2,o),
(391,18,c),
(394,23,l),
(372,108,l),
(368,110,l),
(324,98,o),
(287,90,o),
(250,90,c),
(175,90,o),
(142,170,o),
(142,346,cs),
(142,518,o),
(178,579,o),
(242,579,cs),
(292,579,o),
(322,571,o),
(360,557,c),
(364,559,l),
(385,654,l),
(382,659,l),
(347,670,o),
(296,679,o),
(245,679,cs),
(107,679,o),
(30,609,o),
(30,345,cs),
(30,82,o),
(105,-9,o),
(231,-10,c)
);
}
);
};
layerId = m004;
shapes = (
{
closed = 1;
nodes = (
(171,144,o),
(218,89,o),
(287,90,c),
(344,90,o),
(381,106,o),
(412,124,c),
(351,43,l),
(357,85,o),
(365,122,o),
(365,206,c),
(365,260,o),
(363,301,o),
(355,330,c),
(381,281,l),
(270,281,l),
(265,286,l),
(265,366,l),
(270,371,l),
(284,370,o),
(318,369,o),
(362,369,cs),
(402,369,o),
(438,370,o),
(457,371,c),
(462,366,l),
(461,332,o),
(457,286,o),
(457,234,c),
(457,134,o),
(460,93,o),
(462,53,c),
(461,48,l),
(396,2,o),
(332,-10,o),
(281,-10,cs),
(143,-10,o),
(60,64,o),
(60,335,cs),
(60,606,o),
(140,679,o),
(281,679,cs),
(333,679,o),
(389,668,o),
(423,660,c),
(426,655,l),
(405,560,l),
(401,558,l),
(362,568,o),
(332,579,o),
(279,579,c),
(211,579,o),
(171,525,o),
(171,335,cs)
);
}
);
width = 512;
}
);
unicode = 71;
}
{
glyphname = H;
layers = (
{
layerId = master01;
shapes = (
{
closed = 1;
nodes = (
(213,362,o),
(161,364,o),
(155,364,c),
(155,320,l),
(162,320,o),
(210,322,o),
(285,322,cs),
(360,322,o),
(409,320,o),
(416,320,c),
(416,364,l),
(410,364,o),
(357,362,o),
(285,362,cs)
);
},
{
closed = 1;
nodes = (
(124,564,o),
(130,440,o),
(130,352,cs),
(130,278,o),
(124,113,o),
(120,10,c),
(125,0,l),
(175,0,l),
(180,10,l),
(176,114,o),
(170,280,o),
(170,352,cs),
(170,442,o),
(167,557,o),
(165,618,c),
(165,657,o),
(162,680,o),
(121,680,cs),
(96,680,o),
(65,665,o),
(55,661,c),
(62,626,l),
(141,632,l),
(120,649,l)
);
},
{
closed = 1;
nodes = (
(449,0,l),
(449,3,o),
(454,7,o),
(454,12,cs),
(453,82,o),
(444,303,o),
(444,352,cs),
(444,419,o),
(450,567,o),
(454,660,c),
(449,670,l),
(399,670,l),
(394,660,l),
(398,566,o),
(404,417,o),
(404,352,cs),
(404,301,o),
(398,77,o),
(399,11,c),
(401,7,o),
(402,3,o),
(404,0,c)
);
}
);
width = 529;
},
{
layerId = m002;
shapes = (
{
closed = 1;
nodes = (
(233,392,o),
(181,394,o),
(175,394,c),
(175,290,l),
(182,290,o),
(230,292,o),
(305,292,cs),
(380,292,o),
(429,290,o),
(436,290,c),
(436,394,l),
(430,394,o),
(377,392,o),
(305,392,cs)
);
},
{
closed = 1;
nodes = (
(110,632,o),
(120,473,o),
(120,352,cs),
(120,250,o),
(110,10,o),
(110,10,c),
(115,0,l),
(225,0,l),
(230,10,l),
(230,10,o),
(220,253,o),
(220,352,cs),
(220,475,o),
(215,618,o),
(215,618,c),
(215,657,o),
(200,680,o),
(159,680,c),
(125,680,o),
(94,673,o),
(60,661,c),
(67,581,l),
(129,585,l),
(110,632,l)
);
},
{
closed = 1;
nodes = (
(499,0,l),
(499,3,o),
(504,7,o),
(504,12,cs),
(503,82,o),
(494,303,o),
(494,352,cs),
(494,444,o),
(504,660,o),
(504,660,c),
(499,670,l),
(389,670,l),
(384,660,l),
(384,660,o),
(394,441,o),
(394,352,cs),
(394,301,o),
(388,77,o),
(389,11,c),
(391,7,o),
(392,3,o),
(394,0,c)
);
}
);
width = 584;
},
{
layerId = m003;
shapes = (
{
closed = 1;
nodes = (
(233,362,o),
(181,364,o),
(175,364,c),
(175,320,l),
(182,320,o),
(230,322,o),
(355,322,cs),
(480,322,o),
(529,320,o),
(536,320,c),
(536,364,l),
(530,364,o),
(477,362,o),
(355,362,cs)
);
},
{
closed = 1;
nodes = (
(144,564,o),
(150,440,o),
(150,352,cs),
(150,278,o),
(144,113,o),
(140,10,c),
(145,0,l),
(195,0,l),
(200,10,l),
(196,114,o),
(190,280,o),
(190,352,cs),
(190,442,o),
(187,557,o),
(185,618,c),
(185,657,o),
(182,680,o),
(141,680,cs),
(116,680,o),
(85,665,o),
(75,661,c),
(82,626,l),
(161,632,l),
(140,649,l)
);
},
{
closed = 1;
nodes = (
(569,0,l),
(569,3,o),
(574,7,o),
(574,12,cs),
(573,82,o),
(564,303,o),
(564,352,cs),
(564,419,o),
(570,567,o),
(574,660,c),
(569,670,l),
(519,670,l),
(514,660,l),
(518,566,o),
(524,417,o),
(524,352,cs),
(524,301,o),
(518,77,o),
(519,11,c),
(521,7,o),
(522,3,o),
(524,0,c)
);
}
);
width = 674;
},
{
layerId = m004;
shapes = (
{
closed = 1;
nodes = (
(223,392,o),
(171,394,o),
(165,394,c),
(165,290,l),
(172,290,o),
(220,292,o),
(345,292,cs),
(470,292,o),
(519,290,o),
(526,290,c),
(526,394,l),
(520,394,o),
(467,392,o),
(345,392,cs)
);
},
{
closed = 1;
nodes = (
(100,632,o),
(110,473,o),
(110,352,cs),
(110,250,o),
(100,10,o),
(100,10,c),
(105,0,l),
(215,0,l),
(220,10,l),
(220,10,o),
(210,253,o),
(210,352,cs),
(210,475,o),
(205,618,o),
(205,618,c),
(205,657,o),
(190,680,o),
(149,680,c),
(115,680,o),
(84,673,o),
(50,661,c),
(57,581,l),
(119,585,l),
(100,632,l)
);
},
{
closed = 1;
nodes = (
(589,0,l),
(589,3,o),
(594,7,o),
(594,12,cs),
(593,82,o),
(584,303,o),
(584,352,cs),
(584,444,o),
(594,660,o),
(594,660,c),
(589,670,l),
(479,670,l),
(474,660,l),
(474,660,o),
(484,441,o),
(484,352,cs),
(484,301,o),
(478,77,o),
(479,11,c),
(481,7,o),
(482,3,o),
(484,0,c)
);
}
);
width = 674;
}
);
unicode = 72;
}
{
color = (99,255,209,255);
glyphname = I;
layers = (
{
layerId = master01;
shapes = (
{
closed = 1;
nodes = (
(156,604,l),
(159,532,o),
(164,406,o),
(164,335,cs),
(164,262,o),
(159,126,o),
(156,55,c),
(272,55,l),
(269,127,o),
(264,264,o),
(264,335,cs),
(264,404,o),
(269,534,o),
(272,607,c),
(238,586,l),
(267,584,o),
(325,582,o),
(362,579,c),
(378,594,l),
(378,659,l),
(365,672,l),
(305,671,o),
(259,670,o),
(213,670,cs),
(168,670,o),
(121,671,o),
(59,672,c),
(50,660,l),
(50,594,l),
(59,579,l),
(107,583,o),
(147,586,o),
(183,587,c)
);
},
{
closed = 1;
nodes = (
(122,-1,o),
(168,0,o),
(213,0,cs),
(259,0,o),
(304,-1,o),
(364,-2,c),
(376,11,l),
(376,78,l),
(361,93,l),
(302,88,o),
(257,86,o),
(212,86,cs),
(167,86,o),
(121,88,o),
(60,93,c),
(51,78,l),
(51,10,l),
(61,-2,l)
);
}
);
width = 428;
},
{
layerId = m002;
shapes = (
{
closed = 1;
nodes = (
(156,604,l),
(159,532,o),
(164,406,o),
(164,335,cs),
(164,262,o),
(159,126,o),
(156,55,c),
(272,55,l),
(269,127,o),
(264,264,o),
(264,335,cs),
(264,404,o),
(269,534,o),
(272,607,c),
(238,586,l),
(267,584,o),
(325,582,o),
(362,579,c),
(378,594,l),
(378,659,l),
(365,672,l),
(305,671,o),
(259,670,o),
(213,670,cs),
(168,670,o),
(121,671,o),
(59,672,c),
(50,660,l),
(50,594,l),
(59,579,l),
(107,583,o),
(147,586,o),
(183,587,c)
);
},
{
closed = 1;
nodes = (
(122,-1,o),
(168,0,o),
(213,0,cs),
(259,0,o),
(304,-1,o),
(364,-2,c),
(376,11,l),
(376,78,l),
(361,93,l),
(302,88,o),
(257,86,o),
(212,86,cs),
(167,86,o),
(121,88,o),
(60,93,c),
(51,78,l),
(51,10,l),
(61,-2,l)
);
}
);
width = 428;
},
{
layerId = m003;
shapes = (
{
closed = 1;
nodes = (
(156,604,l),
(159,532,o),
(164,406,o),
(164,335,cs),
(164,262,o),
(159,126,o),
(156,55,c),
(272,55,l),
(269,127,o),
(264,264,o),
(264,335,cs),
(264,404,o),
(269,534,o),
(272,607,c),
(238,586,l),
(267,584,o),
(325,582,o),
(362,579,c),
(378,594,l),
(378,659,l),
(365,672,l),
(305,671,o),
(259,670,o),
(213,670,cs),
(168,670,o),
(121,671,o),
(59,672,c),
(50,660,l),
(50,594,l),
(59,579,l),
(107,583,o),
(147,586,o),
(183,587,c)
);
},
{
closed = 1;
nodes = (
(122,-1,o),
(168,0,o),
(213,0,cs),
(259,0,o),
(304,-1,o),
(364,-2,c),
(376,11,l),
(376,78,l),
(361,93,l),
(302,88,o),
(257,86,o),
(212,86,cs),
(167,86,o),
(121,88,o),
(60,93,c),
(51,78,l),
(51,10,l),
(61,-2,l)
);
}
);
width = 428;
},
{
layerId = m004;
shapes = (
{
closed = 1;
nodes = (
(156,604,l),
(159,532,o),
(164,406,o),
(164,335,cs),
(164,262,o),
(159,126,o),
(156,55,c),
(272,55,l),
(269,127,o),
(264,264,o),
(264,335,cs),
(264,404,o),
(269,534,o),
(272,607,c),
(238,586,l),
(267,584,o),
(325,582,o),
(362,579,c),
(378,594,l),
(378,659,l),
(365,672,l),
(305,671,o),
(259,670,o),
(213,670,cs),
(168,670,o),
(121,671,o),
(59,672,c),
(50,660,l),
(50,594,l),
(59,579,l),
(107,583,o),
(147,586,o),
(183,587,c)
);
},
{
closed = 1;
nodes = (
(122,-1,o),
(168,0,o),
(213,0,cs),
(259,0,o),
(304,-1,o),
(364,-2,c),
(376,11,l),
(376,78,l),
(361,93,l),
(302,88,o),
(257,86,o),
(212,86,cs),
(167,86,o),
(121,88,o),
(60,93,c),
(51,78,l),
(51,10,l),
(61,-2,l)
);
}
);
width = 428;
}
);
unicode = 73;
}
{
glyphname = N;
layers = (
{
anchors = (
{
name = top;
pos = (320,670);
}
);
layerId = master01;
shapes = (
{
closed = 1;
nodes = (
(455,81,l),
(385,237,l),
(168,670,l),
(75,670,l),
(70,664,l),
(74,637,o),
(85,476,o),
(85,375,cs),
(85,175,o),
(75,42,o),
(75,10,c),
(80,0,l),
(184,0,l),
(189,10,l),
(180,106,o),
(170,180,o),
(170,410,c),
(163,631,l),
(117,584,l),
(207,370,l),
(385,0,l),
(486,0,l),
(491,6,l),
(487,35,o),
(478,212,o),
(478,322,cs),
(478,569,o),
(481,617,o),
(488,660,c),
(483,670,l),
(388,670,l),
(383,660,l),
(387,614,o),
(393,570,o),
(393,403,c),
(407,55,l)
);
}
);
width = 561;
},
{
anchors = (
{
name = top;
pos = (320,670);
}
);
layerId = m002;
shapes = (
{
closed = 1;
nodes = (
(455,81,l),
(385,237,l),
(168,670,l),
(75,670,l),
(70,664,l),
(74,637,o),
(85,476,o),
(85,375,cs),
(85,175,o),
(75,42,o),
(75,10,c),
(80,0,l),
(184,0,l),
(189,10,l),
(180,106,o),
(170,180,o),
(170,410,c),
(163,631,l),
(117,584,l),
(207,370,l),
(385,0,l),
(486,0,l),
(491,6,l),
(487,35,o),
(478,212,o),
(478,322,cs),
(478,569,o),
(481,617,o),
(488,660,c),
(483,670,l),
(388,670,l),
(383,660,l),
(387,614,o),
(393,570,o),
(393,403,c),
(407,55,l)
);
}
);
width = 561;
},
{
anchors = (
{
name = top;
pos = (320,670);
}
);
layerId = m003;
shapes = (
{
closed = 1;
nodes = (
(455,81,l),
(385,237,l),
(168,670,l),
(75,670,l),
(70,664,l),
(74,637,o),
(85,476,o),
(85,375,cs),
(85,175,o),
(75,42,o),
(75,10,c),
(80,0,l),
(184,0,l),
(189,10,l),
(180,106,o),
(170,180,o),
(170,410,c),
(163,631,l),
(117,584,l),
(207,370,l),
(385,0,l),
(486,0,l),
(491,6,l),
(487,35,o),
(478,212,o),
(478,322,cs),
(478,569,o),
(481,617,o),
(488,660,c),
(483,670,l),
(388,670,l),
(383,660,l),
(387,614,o),
(393,570,o),
(393,403,c),
(407,55,l)
);
}
);
width = 561;
},
{
anchors = (
{
name = top;
pos = (320,670);
}
);
layerId = m004;
shapes = (
{
closed = 1;
nodes = (
(455,81,l),
(385,237,l),
(168,670,l),
(75,670,l),
(70,664,l),
(74,637,o),
(85,476,o),
(85,375,cs),
(85,175,o),
(75,42,o),
(75,10,c),
(80,0,l),
(184,0,l),
(189,10,l),
(180,106,o),
(170,180,o),
(170,410,c),
(163,631,l),
(117,584,l),
(207,370,l),
(385,0,l),
(486,0,l),
(491,6,l),
(487,35,o),
(478,212,o),
(478,322,cs),
(478,569,o),
(481,617,o),
(488,660,c),
(483,670,l),
(388,670,l),
(383,660,l),
(387,614,o),
(393,570,o),
(393,403,c),
(407,55,l)
);
}
);
width = 561;
}
);
unicode = 78;
}
{
glyphname = O;
layers = (
{
layerId = master01;
shapes = (
{
closed = 1;
nodes = (
(372,90,o),
(396,143,o),
(396,335,cs),
(396,527,o),
(372,580,o),
(283,580,cs),
(195,580,o),
(171,527,o),
(171,335,cs),
(171,143,o),
(195,90,o),
(283,90,cs)
);
},
{
closed = 1;
nodes = (
(128,-10,o),
(60,95,o),
(60,335,cs),
(60,575,o),
(128,680,o),
(283,680,cs),
(439,680,o),
(507,575,o),
(507,335,cs),
(507,95,o),
(439,-10,o),
(283,-10,cs)
);
}
);
width = 567;
},
{
layerId = m002;
shapes = (
{
closed = 1;
nodes = (
(372,90,o),
(396,143,o),
(396,335,cs),
(396,527,o),
(372,580,o),
(283,580,cs),
(195,580,o),
(171,527,o),
(171,335,cs),
(171,143,o),
(195,90,o),
(283,90,cs)
);
},
{
closed = 1;
nodes = (
(128,-10,o),
(60,95,o),
(60,335,cs),
(60,575,o),
(128,680,o),
(283,680,cs),
(439,680,o),
(507,575,o),
(507,335,cs),
(507,95,o),
(439,-10,o),
(283,-10,cs)
);
}
);
width = 567;
},
{
layerId = m003;
shapes = (
{
closed = 1;
nodes = (
(372,90,o),
(396,143,o),
(396,335,cs),
(396,527,o),
(372,580,o),
(283,580,cs),
(195,580,o),
(171,527,o),
(171,335,cs),
(171,143,o),
(195,90,o),
(283,90,cs)
);
},
{
closed = 1;
nodes = (
(128,-10,o),
(60,95,o),
(60,335,cs),
(60,575,o),
(128,680,o),
(283,680,cs),
(439,680,o),
(507,575,o),
(507,335,cs),
(507,95,o),
(439,-10,o),
(283,-10,cs)
);
}
);
width = 567;
},
{
layerId = m004;
shapes = (
{
closed = 1;
nodes = (
(372,90,o),
(396,143,o),
(396,335,cs),
(396,527,o),
(372,580,o),
(283,580,cs),
(195,580,o),
(171,527,o),
(171,335,cs),
(171,143,o),
(195,90,o),
(283,90,cs)
);
},
{
closed = 1;
nodes = (
(128,-10,o),
(60,95,o),
(60,335,cs),
(60,575,o),
(128,680,o),
(283,680,cs),
(439,680,o),
(507,575,o),
(507,335,cs),
(507,95,o),
(439,-10,o),
(283,-10,cs)
);
}
);
width = 567;
}
);
unicode = 79;
}
{
glyphname = P;
layers = (
{
layerId = master01;
shapes = (
{
closed = 1;
nodes = (
(165,236,o),
(180,10,o),
(180,10,c),
(175,0,l),
(65,0,l),
(60,10,l),
(60,10,o),
(70,233,o),
(70,335,c),
(70,440,o),
(60,670,o),
(60,670,c),
(65,680,l),
(216,680,ls),
(364,680,o),
(457,589,o),
(457,445,cs),
(457,301,o),
(371,210,o),
(235,210,cs),
(110,210,l),
(133,310,l),
(235,310,ls),
(314,310,o),
(353,352,o),
(353,438,cs),
(353,533,o),
(308,580,o),
(216,580,cs),
(116,580,l),
(171,627,l),
(168,538,o),
(165,439,o),
(165,335,c)
);
}
);
width = 487;
},
{
layerId = m002;
shapes = (
{
closed = 1;
nodes = (
(165,236,o),
(180,10,o),
(180,10,c),
(175,0,l),
(65,0,l),
(60,10,l),
(60,10,o),
(70,233,o),
(70,335,c),
(70,440,o),
(60,670,o),
(60,670,c),
(65,680,l),
(216,680,ls),
(364,680,o),
(457,589,o),
(457,445,cs),
(457,301,o),
(371,210,o),
(235,210,cs),
(110,210,l),
(133,310,l),
(235,310,ls),
(314,310,o),
(353,352,o),
(353,438,cs),
(353,533,o),
(308,580,o),
(216,580,cs),
(116,580,l),
(171,627,l),
(168,538,o),
(165,439,o),
(165,335,c)
);
}
);
width = 487;
},
{
layerId = m003;
shapes = (
{
closed = 1;
nodes = (
(165,236,o),
(180,10,o),
(180,10,c),
(175,0,l),
(65,0,l),
(60,10,l),
(60,10,o),
(70,233,o),
(70,335,c),
(70,440,o),
(60,670,o),
(60,670,c),
(65,680,l),
(216,680,ls),
(364,680,o),
(457,589,o),
(457,445,cs),
(457,301,o),
(371,210,o),
(235,210,cs),
(110,210,l),
(133,310,l),
(235,310,ls),
(314,310,o),
(353,352,o),
(353,438,cs),
(353,533,o),
(308,580,o),
(216,580,cs),
(116,580,l),
(171,627,l),
(168,538,o),
(165,439,o),
(165,335,c)
);
}
);
width = 487;
},
{
layerId = m004;
shapes = (
{
closed = 1;
nodes = (
(165,236,o),
(180,10,o),
(180,10,c),
(175,0,l),
(65,0,l),
(60,10,l),
(60,10,o),
(70,233,o),
(70,335,c),
(70,440,o),
(60,670,o),
(60,670,c),
(65,680,l),
(216,680,ls),
(364,680,o),
(457,589,o),
(457,445,cs),
(457,301,o),
(371,210,o),
(235,210,cs),
(110,210,l),
(133,310,l),
(235,310,ls),
(314,310,o),
(353,352,o),
(353,438,cs),
(353,533,o),
(308,580,o),
(216,580,cs),
(116,580,l),
(171,627,l),
(168,538,o),
(165,439,o),
(165,335,c)
);
}
);
width = 487;
}
);
unicode = 80;
}
{
glyphname = Q;
layers = (
{
layerId = master01;
shapes = (
{
closed = 1;
nodes = (
(439,-10,o),
(507,95,o),
(507,335,cs),
(507,575,o),
(439,680,o),
(283,680,cs),
(128,680,o),
(60,575,o),
(60,335,cs),
(60,95,o),
(128,-10,o),
(283,-10,cs)
);
},
{
closed = 1;
nodes = (
(195,90,o),
(171,143,o),
(171,335,cs),
(171,527,o),
(195,580,o),
(283,580,cs),
(372,580,o),
(396,527,o),
(396,335,cs),
(396,143,o),
(372,90,o),
(283,90,cs)
);
},
{
closed = 1;
nodes = (
(353,-227,l),
(449,-170,l),
(452,-157,l),
(306,27,l),
(244,0,l),
(334,-223,l)
);
}
);
width = 567;
},
{
layerId = m002;
shapes = (
{
closed = 1;
nodes = (
(439,-10,o),
(507,95,o),
(507,335,cs),
(507,575,o),
(439,680,o),
(283,680,cs),
(128,680,o),
(60,575,o),
(60,335,cs),
(60,95,o),
(128,-10,o),
(283,-10,cs)
);
},
{
closed = 1;
nodes = (
(195,90,o),
(171,143,o),
(171,335,cs),
(171,527,o),
(195,580,o),
(283,580,cs),
(372,580,o),
(396,527,o),
(396,335,cs),
(396,143,o),
(372,90,o),
(283,90,cs)
);
},
{
closed = 1;
nodes = (
(353,-227,l),
(449,-170,l),
(452,-157,l),
(306,27,l),
(244,0,l),
(334,-223,l)
);
}
);
width = 567;
},
{
layerId = m003;
shapes = (
{
closed = 1;
nodes = (
(439,-10,o),
(507,95,o),
(507,335,cs),
(507,575,o),
(439,680,o),
(283,680,cs),
(128,680,o),
(60,575,o),
(60,335,cs),
(60,95,o),
(128,-10,o),
(283,-10,cs)
);
},
{
closed = 1;
nodes = (
(195,90,o),
(171,143,o),
(171,335,cs),
(171,527,o),
(195,580,o),
(283,580,cs),
(372,580,o),
(396,527,o),
(396,335,cs),
(396,143,o),
(372,90,o),
(283,90,cs)
);
},
{
closed = 1;
nodes = (
(353,-227,l),
(449,-170,l),
(452,-157,l),
(306,27,l),
(244,0,l),
(334,-223,l)
);
}
);
width = 567;
},
{
layerId = m004;
shapes = (
{
closed = 1;
nodes = (
(439,-10,o),
(507,95,o),
(507,335,cs),
(507,575,o),
(439,680,o),
(283,680,cs),
(128,680,o),
(60,575,o),
(60,335,cs),
(60,95,o),
(128,-10,o),
(283,-10,cs)
);
},
{
closed = 1;
nodes = (
(195,90,o),
(171,143,o),
(171,335,cs),
(171,527,o),
(195,580,o),
(283,580,cs),
(372,580,o),
(396,527,o),
(396,335,cs),
(396,143,o),
(372,90,o),
(283,90,cs)
);
},
{
closed = 1;
nodes = (
(353,-227,l),
(449,-170,l),
(452,-157,l),
(306,27,l),
(244,0,l),
(334,-223,l)
);
}
);
width = 567;
}
);
unicode = 81;
}
{
color = (99,255,209,255);
glyphname = T;
layers = (
{
layerId = master01;
shapes = (
{
closed = 1;
nodes = (
(169,600,o),
(169,600,c),
(279,600,l),
(279,600,o),
(279,455,o),
(279,347,cs),
(279,239,o),
(292,6,o),
(292,6,c),
(287,-4,l),
(161,-4,l),
(156,6,l),
(156,6,o),
(169,238,o),
(169,348,cs),
(169,458,o)
);
},
{
closed = 1;
nodes = (
(108,570,o),
(30,559,o),
(30,559,c),
(20,564,l),
(20,665,l),
(30,670,l),
(30,670,o),
(130,667,o),
(225,667,cs),
(322,667,o),
(418,670,o),
(418,670,c),
(428,665,l),
(428,564,l),
(418,559,l),
(418,559,o),
(342,570,o),
(225,570,cs)
);
}
);
width = 448;
},
{
layerId = m002;
shapes = (
{
closed = 1;
nodes = (
(169,600,o),
(169,600,c),
(279,600,l),
(279,600,o),
(279,455,o),
(279,347,cs),
(279,239,o),
(292,6,o),
(292,6,c),
(287,-4,l),
(161,-4,l),
(156,6,l),
(156,6,o),
(169,238,o),
(169,348,cs),
(169,458,o)
);
},
{
closed = 1;
nodes = (
(108,570,o),
(30,559,o),
(30,559,c),
(20,564,l),
(20,665,l),
(30,670,l),
(30,670,o),
(130,667,o),
(225,667,cs),
(322,667,o),
(418,670,o),
(418,670,c),
(428,665,l),
(428,564,l),
(418,559,l),
(418,559,o),
(342,570,o),
(225,570,cs)
);
}
);
width = 448;
},
{
layerId = m003;
shapes = (
{
closed = 1;
nodes = (
(169,600,o),
(169,600,c),
(279,600,l),
(279,600,o),
(279,455,o),
(279,347,cs),
(279,239,o),
(292,6,o),
(292,6,c),
(287,-4,l),
(161,-4,l),
(156,6,l),
(156,6,o),
(169,238,o),
(169,348,cs),
(169,458,o)
);
},
{
closed = 1;
nodes = (
(108,570,o),
(30,559,o),
(30,559,c),
(20,564,l),
(20,665,l),
(30,670,l),
(30,670,o),
(130,667,o),
(225,667,cs),
(322,667,o),
(418,670,o),
(418,670,c),
(428,665,l),
(428,564,l),
(418,559,l),
(418,559,o),
(342,570,o),
(225,570,cs)
);
}
);
width = 448;
},
{
layerId = m004;
shapes = (
{
closed = 1;
nodes = (
(169,600,o),
(169,600,c),
(279,600,l),
(279,600,o),
(279,455,o),
(279,347,cs),
(279,239,o),
(292,6,o),
(292,6,c),
(287,-4,l),
(161,-4,l),
(156,6,l),
(156,6,o),
(169,238,o),
(169,348,cs),
(169,458,o)
);
},
{
closed = 1;
nodes = (
(108,570,o),
(30,559,o),
(30,559,c),
(20,564,l),
(20,665,l),
(30,670,l),
(30,670,o),
(130,667,o),
(225,667,cs),
(322,667,o),
(418,670,o),
(418,670,c),
(428,665,l),
(428,564,l),
(418,559,l),
(418,559,o),
(342,570,o),
(225,570,cs)
);
}
);
width = 448;
}
);
unicode = 84;
}
{
color = (38,219,207,255);
glyphname = U;
layers = (
{
layerId = master01;
shapes = (
{
closed = 1;
nodes = (
(118,-10,o),
(50,81,o),
(50,266,cs),
(50,287,o),
(50,648,o),
(50,660,c),
(59,670,l),
(156,670,l),
(165,661,l),
(165,649,o),
(165,276,o),
(165,246,cs),
(165,133,o),
(193,90,o),
(267,90,cs),
(336,90,o),
(363,133,o),
(363,246,cs),
(363,275,o),
(363,650,o),
(363,661,c),
(372,670,l),
(464,670,l),
(473,660,l),
(473,649,o),
(473,288,o),
(473,266,cs),
(473,81,o),
(408,-10,o),
(266,-10,cs)
);
}
);
width = 523;
},
{
layerId = m002;
shapes = (
{
closed = 1;
nodes = (
(118,-10,o),
(50,81,o),
(50,266,cs),
(50,287,o),
(50,648,o),
(50,660,c),
(59,670,l),
(156,670,l),
(165,661,l),
(165,649,o),
(165,276,o),
(165,246,cs),
(165,133,o),
(193,90,o),
(267,90,cs),
(336,90,o),
(363,133,o),
(363,246,cs),
(363,275,o),
(363,650,o),
(363,661,c),
(372,670,l),
(464,670,l),
(473,660,l),
(473,649,o),
(473,288,o),
(473,266,cs),
(473,81,o),
(408,-10,o),
(266,-10,cs)
);
}
);
width = 523;
},
{
layerId = m003;
shapes = (
{
closed = 1;
nodes = (
(118,-10,o),
(50,81,o),
(50,266,cs),
(50,287,o),
(50,648,o),
(50,660,c),
(59,670,l),
(156,670,l),
(165,661,l),
(165,649,o),
(165,276,o),
(165,246,cs),
(165,133,o),
(193,90,o),
(267,90,cs),
(336,90,o),
(363,133,o),
(363,246,cs),
(363,275,o),
(363,650,o),
(363,661,c),
(372,670,l),
(464,670,l),
(473,660,l),
(473,649,o),
(473,288,o),
(473,266,cs),
(473,81,o),
(408,-10,o),
(266,-10,cs)
);
}
);
width = 523;
},
{
layerId = m004;
shapes = (
{
closed = 1;
nodes = (
(118,-10,o),
(50,81,o),
(50,266,cs),
(50,287,o),
(50,648,o),
(50,660,c),
(59,670,l),
(156,670,l),
(165,661,l),
(165,649,o),
(165,276,o),
(165,246,cs),
(165,133,o),
(193,90,o),
(267,90,cs),
(336,90,o),
(363,133,o),
(363,246,cs),
(363,275,o),
(363,650,o),
(363,661,c),
(372,670,l),
(464,670,l),
(473,660,l),
(473,649,o),
(473,288,o),
(473,266,cs),
(473,81,o),
(408,-10,o),
(266,-10,cs)
);
}
);
width = 523;
}
);
unicode = 85;
}
{
color = (99,255,209,255);
glyphname = c;
layers = (
{
background = {
shapes = (
{
closed = 1;
nodes = (
(45,420,o),
(111,520,o),
(247,520,cs),
(385,520,o),
(435,426,o),
(427,304,cs),
(423,241,l),
(412,228,l),
(305,228,o),
(209,228,o),
(102,228,c),
(97,299,l),
(340,299,l),
(330,288,l),
(330,402,o),
(298,430,o),
(238,430,cs),
(178,430,o),
(146,396,o),
(146,253,cs),
(146,135,o),
(173,80,o),
(258,80,cs),
(314,80,o),
(339,87,o),
(393,104,c),
(400,103,l),
(424,45,l),
(423,38,l),
(363,8,o),
(325,-10,o),
(244,-10,c),
(111,-10,o),
(45,86,o),
(45,253,cs)
);
}
);
};
layerId = master01;
shapes = (
{
closed = 1;
nodes = (
(50,419,o),
(114,520,o),
(247,520,cs),
(374,520,o),
(415,446,o),
(415,339,c),
(413,337,l),
(331,327,l),
(329,329,l),
(315,395,o),
(299,430,o),
(238,430,c),
(176,430,o),
(151,389,o),
(151,258,cs),
(151,127,o),
(179,80,o),
(261,80,cs),
(318,80,o),
(350,91,o),
(392,102,c),
(395,101,l),
(419,37,l),
(418,34,l),
(363,5,o),
(313,-10,o),
(235,-10,c),
(114,-10,o),
(50,85,o),
(50,251,cs)
);
}
);
width = 439;
},
{
background = {
shapes = (
{
closed = 1;
nodes = (
(45,420,o),
(111,520,o),
(247,520,cs),
(385,520,o),
(435,426,o),
(427,304,cs),
(423,241,l),
(412,228,l),
(305,228,o),
(209,228,o),
(102,228,c),
(97,299,l),
(340,299,l),
(330,288,l),
(330,402,o),
(298,430,o),
(238,430,cs),
(178,430,o),
(146,396,o),
(146,253,cs),
(146,135,o),
(173,80,o),
(258,80,cs),
(314,80,o),
(339,87,o),
(393,104,c),
(400,103,l),
(424,45,l),
(423,38,l),
(363,8,o),
(325,-10,o),
(244,-10,c),
(111,-10,o),
(45,86,o),
(45,253,cs)
);
}
);
};
layerId = m002;
shapes = (
{
closed = 1;
nodes = (
(50,419,o),
(114,520,o),
(247,520,cs),
(374,520,o),
(415,446,o),
(415,339,c),
(413,337,l),
(331,327,l),
(329,329,l),
(315,395,o),
(299,430,o),
(238,430,c),
(176,430,o),
(151,389,o),
(151,258,cs),
(151,127,o),
(179,80,o),
(261,80,cs),
(318,80,o),
(350,91,o),
(392,102,c),
(395,101,l),
(419,37,l),
(418,34,l),
(363,5,o),
(313,-10,o),
(235,-10,c),
(114,-10,o),
(50,85,o),
(50,251,cs)
);
}
);
width = 439;
},
{
background = {
shapes = (
{
closed = 1;
nodes = (
(45,420,o),
(111,520,o),
(247,520,cs),
(385,520,o),
(435,426,o),
(427,304,cs),
(423,241,l),
(412,228,l),
(305,228,o),
(209,228,o),
(102,228,c),
(97,299,l),
(340,299,l),
(330,288,l),
(330,402,o),
(298,430,o),
(238,430,cs),
(178,430,o),
(146,396,o),
(146,253,cs),
(146,135,o),
(173,80,o),
(258,80,cs),
(314,80,o),
(339,87,o),
(393,104,c),
(400,103,l),
(424,45,l),
(423,38,l),
(363,8,o),
(325,-10,o),
(244,-10,c),
(111,-10,o),
(45,86,o),
(45,253,cs)
);
}
);
};
layerId = m003;
shapes = (
{
closed = 1;
nodes = (
(50,419,o),
(114,520,o),
(247,520,cs),
(374,520,o),
(415,446,o),
(415,339,c),
(413,337,l),
(331,327,l),
(329,329,l),
(315,395,o),
(299,430,o),
(238,430,c),
(176,430,o),
(151,389,o),
(151,258,cs),
(151,127,o),
(179,80,o),
(261,80,cs),
(318,80,o),
(350,91,o),
(392,102,c),
(395,101,l),
(419,37,l),
(418,34,l),
(363,5,o),
(313,-10,o),
(235,-10,c),
(114,-10,o),
(50,85,o),
(50,251,cs)
);
}
);
width = 439;
},
{
background = {
shapes = (
{
closed = 1;
nodes = (
(45,420,o),
(111,520,o),
(247,520,cs),
(385,520,o),
(435,426,o),
(427,304,cs),
(423,241,l),
(412,228,l),
(305,228,o),
(209,228,o),
(102,228,c),
(97,299,l),
(340,299,l),
(330,288,l),
(330,402,o),
(298,430,o),
(238,430,cs),
(178,430,o),
(146,396,o),
(146,253,cs),
(146,135,o),
(173,80,o),
(258,80,cs),
(314,80,o),
(339,87,o),
(393,104,c),
(400,103,l),
(424,45,l),
(423,38,l),
(363,8,o),
(325,-10,o),
(244,-10,c),
(111,-10,o),
(45,86,o),
(45,253,cs)
);
}
);
};
layerId = m004;
shapes = (
{
closed = 1;
nodes = (
(50,419,o),
(114,520,o),
(247,520,cs),
(374,520,o),
(415,446,o),
(415,339,c),
(413,337,l),
(331,327,l),
(329,329,l),
(315,395,o),
(299,430,o),
(238,430,c),
(176,430,o),
(151,389,o),
(151,258,cs),
(151,127,o),
(179,80,o),
(261,80,cs),
(318,80,o),
(350,91,o),
(392,102,c),
(395,101,l),
(419,37,l),
(418,34,l),
(363,5,o),
(313,-10,o),
(235,-10,c),
(114,-10,o),
(50,85,o),
(50,251,cs)
);
}
);
width = 439;
}
);
metricLeft = "=o";
unicode = 99;
}
{
color = (99,255,209,255);
glyphname = d;
layers = (
{
background = {
shapes = (
{
closed = 1;
nodes = (
(321,-151,o),
(321,-176,cs),
(321,-227,o),
(340,-250,o),
(379,-250,cs),
(404,-250,o),
(450,-247,o),
(477,-241,c),
(481,-161,l),
(387,-142,l),
(431,-196,l),
(431,-142,o),
(424,-92,o),
(424,139,cs),
(424,405,o),
(429,454,o),
(434,500,c),
(429,510,l),
(332,510,l),
(327,500,l),
(327,260,ls),
(327,138,o),
(298,85,o),
(240,85,cs),
(179,85,o),
(147,164,o),
(147,277,cs),
(147,390,o),
(175,425,o),
(237,425,cs),
(269,425,o),
(312,412,o),
(351,386,c),
(377,440,l),
(310,440,l),
(330,429,l),
(316,467,o),
(276,520,o),
(214,520,cs),
(118,520,o),
(37,481,o),
(37,258,cs),
(37,79,o),
(94,-10,o),
(207,-10,c),
(286,-10,o),
(335,60,o),
(360,93,c),
(307,82,l),
(339,82,l),
(326,96,l),
(326,-15,ls),
(326,-72,o)
);
}
);
};
layerId = master01;
shapes = (
{
closed = 1;
nodes = (
(334,570,o),
(335,490,o),
(335,203,cs),
(335,130,o),
(304,85,o),
(246,85,cs),
(189,85,o),
(150,130,o),
(150,243,cs),
(150,280,ls),
(150,397,o),
(177,430,o),
(243,430,cs),
(283,430,o),
(309,416,o),
(357,394,c),
(357,442,l),
(321,442,l),
(332,432,l),
(322,477,o),
(280,520,o),
(217,520,cs),
(118,520,o),
(45,465,o),
(45,275,cs),
(45,237,ls),
(45,69,o),
(112,-10,o),
(201,-10,c),
(297,-10,o),
(334,57,o),
(337,123,c),
(314,72,l),
(367,72,l),
(334,93,l),
(334,57,ls),
(334,12,o),
(345,-9,o),
(380,-9,cs),
(405,-9,o),
(456,-6,o),
(483,0,c),
(487,80,l),
(384,100,l),
(435,37,l),
(435,322,ls),
(435,555,o),
(440,641,o),
(440,688,c),
(440,727,o),
(424,750,o),
(379,750,cs),
(348,750,o),
(311,740,o),
(279,731,c),
(286,651,l),
(349,655,l),
(325,679,l)
);
}
);
width = 527;
},
{
background = {
shapes = (
{
closed = 1;
nodes = (
(321,-151,o),
(321,-176,cs),
(321,-227,o),
(340,-250,o),
(379,-250,cs),
(404,-250,o),
(450,-247,o),
(477,-241,c),
(481,-161,l),
(387,-142,l),
(431,-196,l),
(431,-142,o),
(424,-92,o),
(424,139,cs),
(424,405,o),
(429,454,o),
(434,500,c),
(429,510,l),
(332,510,l),
(327,500,l),
(327,260,ls),
(327,138,o),
(298,85,o),
(240,85,cs),
(179,85,o),
(147,164,o),
(147,277,cs),
(147,390,o),
(175,425,o),
(237,425,cs),
(269,425,o),
(312,412,o),
(351,386,c),
(377,440,l),
(310,440,l),
(330,429,l),
(316,467,o),
(276,520,o),
(214,520,cs),
(118,520,o),
(37,481,o),
(37,258,cs),
(37,79,o),
(94,-10,o),
(207,-10,c),
(286,-10,o),
(335,60,o),
(360,93,c),
(307,82,l),
(339,82,l),
(326,96,l),
(326,-15,ls),
(326,-72,o)
);
}
);
};
layerId = m002;
shapes = (
{
closed = 1;
nodes = (
(334,570,o),
(335,490,o),
(335,203,cs),
(335,130,o),
(304,85,o),
(246,85,cs),
(189,85,o),
(150,130,o),
(150,243,cs),
(150,280,ls),
(150,397,o),
(177,430,o),
(243,430,cs),
(283,430,o),
(309,416,o),
(357,394,c),
(357,442,l),
(321,442,l),
(332,432,l),
(322,477,o),
(280,520,o),
(217,520,cs),
(118,520,o),
(45,465,o),
(45,275,cs),
(45,237,ls),
(45,69,o),
(112,-10,o),
(201,-10,c),
(297,-10,o),
(334,57,o),
(337,123,c),
(314,72,l),
(367,72,l),
(334,93,l),
(334,57,ls),
(334,12,o),
(345,-9,o),
(380,-9,cs),
(405,-9,o),
(456,-6,o),
(483,0,c),
(487,80,l),
(384,100,l),
(435,37,l),
(435,322,ls),
(435,555,o),
(440,641,o),
(440,688,c),
(440,727,o),
(424,750,o),
(379,750,cs),
(348,750,o),
(311,740,o),
(279,731,c),
(286,651,l),
(349,655,l),
(325,679,l)
);
}
);
width = 527;
},
{
background = {
shapes = (
{
closed = 1;
nodes = (
(321,-151,o),
(321,-176,cs),
(321,-227,o),
(340,-250,o),
(379,-250,cs),
(404,-250,o),
(450,-247,o),
(477,-241,c),
(481,-161,l),
(387,-142,l),
(431,-196,l),
(431,-142,o),
(424,-92,o),
(424,139,cs),
(424,405,o),
(429,454,o),
(434,500,c),
(429,510,l),
(332,510,l),
(327,500,l),
(327,260,ls),
(327,138,o),
(298,85,o),
(240,85,cs),
(179,85,o),
(147,164,o),
(147,277,cs),
(147,390,o),
(175,425,o),
(237,425,cs),
(269,425,o),
(312,412,o),
(351,386,c),
(377,440,l),
(310,440,l),
(330,429,l),
(316,467,o),
(276,520,o),
(214,520,cs),
(118,520,o),
(37,481,o),
(37,258,cs),
(37,79,o),
(94,-10,o),
(207,-10,c),
(286,-10,o),
(335,60,o),
(360,93,c),
(307,82,l),
(339,82,l),
(326,96,l),
(326,-15,ls),
(326,-72,o)
);
}
);
};
layerId = m003;
shapes = (
{
closed = 1;
nodes = (
(334,570,o),
(335,490,o),
(335,203,cs),
(335,130,o),
(304,85,o),
(246,85,cs),
(189,85,o),
(150,130,o),
(150,243,cs),
(150,280,ls),
(150,397,o),
(177,430,o),
(243,430,cs),
(283,430,o),
(309,416,o),
(357,394,c),
(357,442,l),
(321,442,l),
(332,432,l),
(322,477,o),
(280,520,o),
(217,520,cs),
(118,520,o),
(45,465,o),
(45,275,cs),
(45,237,ls),
(45,69,o),
(112,-10,o),
(201,-10,c),
(297,-10,o),
(334,57,o),
(337,123,c),
(314,72,l),
(367,72,l),
(334,93,l),
(334,57,ls),
(334,12,o),
(345,-9,o),
(380,-9,cs),
(405,-9,o),
(456,-6,o),
(483,0,c),
(487,80,l),
(384,100,l),
(435,37,l),
(435,322,ls),
(435,555,o),
(440,641,o),
(440,688,c),
(440,727,o),
(424,750,o),
(379,750,cs),
(348,750,o),
(311,740,o),
(279,731,c),
(286,651,l),
(349,655,l),
(325,679,l)
);
}
);
width = 527;
},
{
background = {
shapes = (
{
closed = 1;
nodes = (
(321,-151,o),
(321,-176,cs),
(321,-227,o),
(340,-250,o),
(379,-250,cs),
(404,-250,o),
(450,-247,o),
(477,-241,c),
(481,-161,l),
(387,-142,l),
(431,-196,l),
(431,-142,o),
(424,-92,o),
(424,139,cs),
(424,405,o),
(429,454,o),
(434,500,c),
(429,510,l),
(332,510,l),
(327,500,l),
(327,260,ls),
(327,138,o),
(298,85,o),
(240,85,cs),
(179,85,o),
(147,164,o),
(147,277,cs),
(147,390,o),
(175,425,o),
(237,425,cs),
(269,425,o),
(312,412,o),
(351,386,c),
(377,440,l),
(310,440,l),
(330,429,l),
(316,467,o),
(276,520,o),
(214,520,cs),
(118,520,o),
(37,481,o),
(37,258,cs),
(37,79,o),
(94,-10,o),
(207,-10,c),
(286,-10,o),
(335,60,o),
(360,93,c),
(307,82,l),
(339,82,l),
(326,96,l),
(326,-15,ls),
(326,-72,o)
);
}
);
};
layerId = m004;
shapes = (
{
closed = 1;
nodes = (
(334,570,o),
(335,490,o),
(335,203,cs),
(335,130,o),
(304,85,o),
(246,85,cs),
(189,85,o),
(150,130,o),
(150,243,cs),
(150,280,ls),
(150,397,o),
(177,430,o),
(243,430,cs),
(283,430,o),
(309,416,o),
(357,394,c),
(357,442,l),
(321,442,l),
(332,432,l),
(322,477,o),
(280,520,o),
(217,520,cs),
(118,520,o),
(45,465,o),
(45,275,cs),
(45,237,ls),
(45,69,o),
(112,-10,o),
(201,-10,c),
(297,-10,o),
(334,57,o),
(337,123,c),
(314,72,l),
(367,72,l),
(334,93,l),
(334,57,ls),
(334,12,o),
(345,-9,o),
(380,-9,cs),
(405,-9,o),
(456,-6,o),
(483,0,c),
(487,80,l),
(384,100,l),
(435,37,l),
(435,322,ls),
(435,555,o),
(440,641,o),
(440,688,c),
(440,727,o),
(424,750,o),
(379,750,cs),
(348,750,o),
(311,740,o),
(279,731,c),
(286,651,l),
(349,655,l),
(325,679,l)
);
}
);
width = 527;
}
);
metricLeft = "=o";
unicode = 100;
}
{
color = (99,255,209,255);
glyphname = e;
layers = (
{
background = {
shapes = (
{
closed = 1;
nodes = (
(331,80,o),
(348,140,o),
(348,261,cs),
(348,382,o),
(331,430,o),
(249,430,cs),
(167,430,o),
(151,384,o),
(151,261,cs),
(151,142,o),
(167,80,o),
(249,80,cs)
);
},
{
closed = 1;
nodes = (
(122,-10,o),
(50,81,o),
(50,261,cs),
(50,445,o),
(122,520,o),
(249,520,cs),
(377,520,o),
(449,445,o),
(449,261,cs),
(449,81,o),
(377,-10,o),
(249,-10,cs)
);
}
);
};
layerId = master01;
shapes = (
{
closed = 1;
nodes = (
(40,420,o),
(106,520,o),
(242,520,cs),
(380,520,o),
(430,426,o),
(422,304,cs),
(418,241,l),
(407,228,l),
(300,228,o),
(204,228,o),
(97,228,c),
(92,299,l),
(335,299,l),
(325,288,l),
(325,402,o),
(293,430,o),
(233,430,cs),
(173,430,o),
(141,396,o),
(141,253,cs),
(141,135,o),
(168,80,o),
(253,80,cs),
(309,80,o),
(334,87,o),
(388,104,c),
(395,103,l),
(419,45,l),
(418,38,l),
(358,8,o),
(320,-10,o),
(239,-10,cs),
(106,-10,o),
(40,86,o),
(40,253,cs)
);
}
);
width = 463;
},
{
background = {
shapes = (
{
closed = 1;
nodes = (
(331,80,o),
(348,140,o),
(348,261,cs),
(348,382,o),
(331,430,o),
(249,430,cs),
(167,430,o),
(151,384,o),
(151,261,cs),
(151,142,o),
(167,80,o),
(249,80,cs)
);
},
{
closed = 1;
nodes = (
(122,-10,o),
(50,81,o),
(50,261,cs),
(50,445,o),
(122,520,o),
(249,520,cs),
(377,520,o),
(449,445,o),
(449,261,cs),
(449,81,o),
(377,-10,o),
(249,-10,cs)
);
}
);
};
layerId = m002;
shapes = (
{
closed = 1;
nodes = (
(40,420,o),
(106,520,o),
(242,520,cs),
(380,520,o),
(430,426,o),
(422,304,cs),
(418,241,l),
(407,228,l),
(300,228,o),
(204,228,o),
(97,228,c),
(92,299,l),
(335,299,l),
(325,288,l),
(325,402,o),
(293,430,o),
(233,430,cs),
(173,430,o),
(141,396,o),
(141,253,cs),
(141,135,o),
(168,80,o),
(253,80,cs),
(309,80,o),
(334,87,o),
(388,104,c),
(395,103,l),
(419,45,l),
(418,38,l),
(358,8,o),
(320,-10,o),
(239,-10,cs),
(106,-10,o),
(40,86,o),
(40,253,cs)
);
}
);
width = 463;
},
{
background = {
shapes = (
{
closed = 1;
nodes = (
(331,80,o),
(348,140,o),
(348,261,cs),
(348,382,o),
(331,430,o),
(249,430,cs),
(167,430,o),
(151,384,o),
(151,261,cs),
(151,142,o),
(167,80,o),
(249,80,cs)
);
},
{
closed = 1;
nodes = (
(122,-10,o),
(50,81,o),
(50,261,cs),
(50,445,o),
(122,520,o),
(249,520,cs),
(377,520,o),
(449,445,o),
(449,261,cs),
(449,81,o),
(377,-10,o),
(249,-10,cs)
);
}
);
};
layerId = m003;
shapes = (
{
closed = 1;
nodes = (
(40,420,o),
(106,520,o),
(242,520,cs),
(380,520,o),
(430,426,o),
(422,304,cs),
(418,241,l),
(407,228,l),
(300,228,o),
(204,228,o),
(97,228,c),
(92,299,l),
(335,299,l),
(325,288,l),
(325,402,o),
(293,430,o),
(233,430,cs),
(173,430,o),
(141,396,o),
(141,253,cs),
(141,135,o),
(168,80,o),
(253,80,cs),
(309,80,o),
(334,87,o),
(388,104,c),
(395,103,l),
(419,45,l),
(418,38,l),
(358,8,o),
(320,-10,o),
(239,-10,cs),
(106,-10,o),
(40,86,o),
(40,253,cs)
);
}
);
width = 463;
},
{
background = {
shapes = (
{
closed = 1;
nodes = (
(331,80,o),
(348,140,o),
(348,261,cs),
(348,382,o),
(331,430,o),
(249,430,cs),
(167,430,o),
(151,384,o),
(151,261,cs),
(151,142,o),
(167,80,o),
(249,80,cs)
);
},
{
closed = 1;
nodes = (
(122,-10,o),
(50,81,o),
(50,261,cs),
(50,445,o),
(122,520,o),
(249,520,cs),
(377,520,o),
(449,445,o),
(449,261,cs),
(449,81,o),
(377,-10,o),
(249,-10,cs)
);
}
);
};
layerId = m004;
shapes = (
{
closed = 1;
nodes = (
(40,420,o),
(106,520,o),
(242,520,cs),
(380,520,o),
(430,426,o),
(422,304,cs),
(418,241,l),
(407,228,l),
(300,228,o),
(204,228,o),
(97,228,c),
(92,299,l),
(335,299,l),
(325,288,l),
(325,402,o),
(293,430,o),
(233,430,cs),
(173,430,o),
(141,396,o),
(141,253,cs),
(141,135,o),
(168,80,o),
(253,80,cs),
(309,80,o),
(334,87,o),
(388,104,c),
(395,103,l),
(419,45,l),
(418,38,l),
(358,8,o),
(320,-10,o),
(239,-10,cs),
(106,-10,o),
(40,86,o),
(40,253,cs)
);
}
);
width = 463;
}
);
metricLeft = "=o";
unicode = 101;
}
{
color = (99,255,209,255);
glyphname = h;
layers = (
{
background = {
shapes = (
{
closed = 1;
nodes = (
(476,383,ls),
(476,478,o),
(440,520,o),
(351,520,cs),
(283,520,o),
(240,492,o),
(205,440,c),
(180,440,l),
(180,383,l),
(210,395,o),
(262,417,o),
(317,417,c),
(369,417,o),
(376,388,o),
(376,275,c),
(376,196,o),
(372,120,o),
(372,65,cs),
(372,13,o),
(403,-10,o),
(443,-10,c),
(466,-10,o),
(497,-5,o),
(524,-1,c),
(528,80,l),
(428,100,l),
(476,37,l)
);
},
{
closed = 1;
nodes = (
(90,472,o),
(100,415,o),
(100,275,cs),
(100,77,o),
(90,10,o),
(90,10,c),
(95,0,l),
(205,0,l),
(210,10,l),
(210,10,o),
(200,89,o),
(200,275,cs),
(200,352,o),
(200,458,o),
(200,458,c),
(200,497,o),
(184,520,o),
(139,520,c),
(110,520,o),
(74,512,o),
(41,504,c),
(48,421,l),
(109,425,l),
(90,472,l)
);
}
);
};
layerId = master01;
shapes = (
{
closed = 1;
nodes = (
(199,384,o),
(228,430,o),
(295,430,c),
(357,430,o),
(375,394,o),
(375,275,c),
(375,196,o),
(371,120,o),
(371,65,cs),
(371,13,o),
(402,-10,o),
(442,-10,c),
(465,-10,o),
(496,-5,o),
(523,-1,c),
(527,80,l),
(427,100,l),
(475,37,l),
(475,383,ls),
(475,477,o),
(437,520,o),
(344,520,c),
(249,520,o),
(198,447,o),
(183,394,c),
(219,440,l),
(183,440,l),
(199,413,l),
(199,688,ls),
(199,729,o),
(183,750,o),
(138,750,c),
(109,750,o),
(73,743,o),
(40,735,c),
(47,652,l),
(108,655,l),
(89,702,l),
(89,702,o),
(96,651,o),
(99,401,cs),
(102,151,o),
(89,10,o),
(89,10,c),
(94,0,l),
(204,0,l),
(209,10,l),
(209,10,o),
(199,89,o),
(199,275,cs)
);
}
);
width = 572;
},
{
background = {
shapes = (
{
closed = 1;
nodes = (
(476,383,ls),
(476,478,o),
(440,520,o),
(351,520,cs),
(283,520,o),
(240,492,o),
(205,440,c),
(180,440,l),
(180,383,l),
(210,395,o),
(262,417,o),
(317,417,c),
(369,417,o),
(376,388,o),
(376,275,c),
(376,196,o),
(372,120,o),
(372,65,cs),
(372,13,o),
(403,-10,o),
(443,-10,c),
(466,-10,o),
(497,-5,o),
(524,-1,c),
(528,80,l),
(428,100,l),
(476,37,l)
);
},
{
closed = 1;
nodes = (
(90,472,o),
(100,415,o),
(100,275,cs),
(100,77,o),
(90,10,o),
(90,10,c),
(95,0,l),
(205,0,l),
(210,10,l),
(210,10,o),
(200,89,o),
(200,275,cs),
(200,352,o),
(200,458,o),
(200,458,c),
(200,497,o),
(184,520,o),
(139,520,c),
(110,520,o),
(74,512,o),
(41,504,c),
(48,421,l),
(109,425,l),
(90,472,l)
);
}
);
};
layerId = m002;
shapes = (
{
closed = 1;
nodes = (
(199,384,o),
(228,430,o),
(295,430,c),
(357,430,o),
(375,394,o),
(375,275,c),
(375,196,o),
(371,120,o),
(371,65,cs),
(371,13,o),
(402,-10,o),
(442,-10,c),
(465,-10,o),
(496,-5,o),
(523,-1,c),
(527,80,l),
(427,100,l),
(475,37,l),
(475,383,ls),
(475,477,o),
(437,520,o),
(344,520,c),
(249,520,o),
(198,447,o),
(183,394,c),
(219,440,l),
(183,440,l),
(199,413,l),
(199,688,ls),
(199,729,o),
(183,750,o),
(138,750,c),
(109,750,o),
(73,743,o),
(40,735,c),
(47,652,l),
(108,655,l),
(89,702,l),
(89,702,o),
(96,651,o),
(99,401,cs),
(102,151,o),
(89,10,o),
(89,10,c),
(94,0,l),
(204,0,l),
(209,10,l),
(209,10,o),
(199,89,o),
(199,275,cs)
);
}
);
width = 572;
},
{
background = {
shapes = (
{
closed = 1;
nodes = (
(476,383,ls),
(476,478,o),
(440,520,o),
(351,520,cs),
(283,520,o),
(240,492,o),
(205,440,c),
(180,440,l),
(180,383,l),
(210,395,o),
(262,417,o),
(317,417,c),
(369,417,o),
(376,388,o),
(376,275,c),
(376,196,o),
(372,120,o),
(372,65,cs),
(372,13,o),
(403,-10,o),
(443,-10,c),
(466,-10,o),
(497,-5,o),
(524,-1,c),
(528,80,l),
(428,100,l),
(476,37,l)
);
},
{
closed = 1;
nodes = (
(90,472,o),
(100,415,o),
(100,275,cs),
(100,77,o),
(90,10,o),
(90,10,c),
(95,0,l),
(205,0,l),
(210,10,l),
(210,10,o),
(200,89,o),
(200,275,cs),
(200,352,o),
(200,458,o),
(200,458,c),
(200,497,o),
(184,520,o),
(139,520,c),
(110,520,o),
(74,512,o),
(41,504,c),
(48,421,l),
(109,425,l),
(90,472,l)
);
}
);
};
layerId = m003;
shapes = (
{
closed = 1;
nodes = (
(199,384,o),
(228,430,o),
(295,430,c),
(357,430,o),
(375,394,o),
(375,275,c),
(375,196,o),
(371,120,o),
(371,65,cs),
(371,13,o),
(402,-10,o),
(442,-10,c),
(465,-10,o),
(496,-5,o),
(523,-1,c),
(527,80,l),
(427,100,l),
(475,37,l),
(475,383,ls),
(475,477,o),
(437,520,o),
(344,520,c),
(249,520,o),
(198,447,o),
(183,394,c),
(219,440,l),
(183,440,l),
(199,413,l),
(199,688,ls),
(199,729,o),
(183,750,o),
(138,750,c),
(109,750,o),
(73,743,o),
(40,735,c),
(47,652,l),
(108,655,l),
(89,702,l),
(89,702,o),
(96,651,o),
(99,401,cs),
(102,151,o),
(89,10,o),
(89,10,c),
(94,0,l),
(204,0,l),
(209,10,l),
(209,10,o),
(199,89,o),
(199,275,cs)
);
}
);
width = 572;
},
{
background = {
shapes = (
{
closed = 1;
nodes = (
(476,383,ls),
(476,478,o),
(440,520,o),
(351,520,cs),
(283,520,o),
(240,492,o),
(205,440,c),
(180,440,l),
(180,383,l),
(210,395,o),
(262,417,o),
(317,417,c),
(369,417,o),
(376,388,o),
(376,275,c),
(376,196,o),
(372,120,o),
(372,65,cs),
(372,13,o),
(403,-10,o),
(443,-10,c),
(466,-10,o),
(497,-5,o),
(524,-1,c),
(528,80,l),
(428,100,l),
(476,37,l)
);
},
{
closed = 1;
nodes = (
(90,472,o),
(100,415,o),
(100,275,cs),
(100,77,o),
(90,10,o),
(90,10,c),
(95,0,l),
(205,0,l),
(210,10,l),
(210,10,o),
(200,89,o),
(200,275,cs),
(200,352,o),
(200,458,o),
(200,458,c),
(200,497,o),
(184,520,o),
(139,520,c),
(110,520,o),
(74,512,o),
(41,504,c),
(48,421,l),
(109,425,l),
(90,472,l)
);
}
);
};
layerId = m004;
shapes = (
{
closed = 1;
nodes = (
(199,384,o),
(228,430,o),
(295,430,c),
(357,430,o),
(375,394,o),
(375,275,c),
(375,196,o),
(371,120,o),
(371,65,cs),
(371,13,o),
(402,-10,o),
(442,-10,c),
(465,-10,o),
(496,-5,o),
(523,-1,c),
(527,80,l),
(427,100,l),
(475,37,l),
(475,383,ls),
(475,477,o),
(437,520,o),
(344,520,c),
(249,520,o),
(198,447,o),
(183,394,c),
(219,440,l),
(183,440,l),
(199,413,l),
(199,688,ls),
(199,729,o),
(183,750,o),
(138,750,c),
(109,750,o),
(73,743,o),
(40,735,c),
(47,652,l),
(108,655,l),
(89,702,l),
(89,702,o),
(96,651,o),
(99,401,cs),
(102,151,o),
(89,10,o),
(89,10,c),
(94,0,l),
(204,0,l),
(209,10,l),
(209,10,o),
(199,89,o),
(199,275,cs)
);
}
);
width = 572;
}
);
unicode = 104;
}
{
color = (99,255,209,255);
glyphname = n;
layers = (
{
anchors = (
{
name = top;
pos = (-244,510);
}
);
layerId = master01;
shapes = (
{
closed = 1;
nodes = (
(154,0,l),
(159,10,l),
(155,44,o),
(149,139,o),
(149,315,cs),
(149,418,o),
(187,480,o),
(275,480,cs),
(352,480,o),
(385,437,o),
(385,338,cs),
(385,259,o),
(381,120,o),
(381,65,cs),
(381,17,o),
(396,-10,o),
(422,-10,c),
(436,-10,o),
(450,-7,o),
(488,-1,c),
(492,35,l),
(407,55,l),
(440,18,l),
(440,351,ls),
(440,459,o),
(388,520,o),
(296,520,cs),
(214,520,o),
(155,475,o),
(132,394,c),
(165,440,l),
(133,440,l),
(149,413,l),
(149,458,ls),
(149,498,o),
(138,520,o),
(118,520,c),
(94,520,o),
(83,515,o),
(45,505,c),
(52,465,l),
(132,468,l),
(99,472,l),
(101,447,o),
(104,377,o),
(104,275,cs),
(104,130,o),
(98,39,o),
(94,10,c),
(99,0,l)
);
}
);
width = 547;
},
{
anchors = (
{
name = top;
pos = (-219,510);
}
);
layerId = m002;
shapes = (
{
closed = 1;
nodes = (
(209,0,l),
(214,10,l),
(214,10,o),
(204,89,o),
(204,275,cs),
(204,384,o),
(233,430,o),
(300,430,c),
(362,430,o),
(380,394,o),
(380,275,c),
(380,196,o),
(376,120,o),
(376,65,cs),
(376,13,o),
(407,-10,o),
(447,-10,c),
(470,-10,o),
(501,-5,o),
(528,-1,c),
(532,80,l),
(432,100,l),
(480,37,l),
(480,383,ls),
(480,477,o),
(442,520,o),
(349,520,c),
(254,520,o),
(203,447,o),
(188,394,c),
(224,440,l),
(188,440,l),
(204,413,l),
(204,458,ls),
(204,499,o),
(188,520,o),
(143,520,c),
(114,520,o),
(78,513,o),
(45,505,c),
(52,422,l),
(113,425,l),
(94,472,l),
(94,472,o),
(104,415,o),
(104,275,cs),
(104,77,o),
(94,10,o),
(94,10,c),
(99,0,l)
);
}
);
width = 577;
},
{
anchors = (
{
name = top;
pos = (-184,510);
}
);
layerId = m003;
shapes = (
{
closed = 1;
nodes = (
(164,0,l),
(169,10,l),
(162,69,o),
(159,150,o),
(159,286,cs),
(159,418,o),
(213,480,o),
(335,480,cs),
(446,480,o),
(495,437,o),
(495,338,cs),
(495,259,o),
(491,120,o),
(491,65,cs),
(491,13,o),
(503,-10,o),
(532,-10,c),
(538,-10,o),
(558,-7,o),
(598,-1,c),
(602,35,l),
(517,55,l),
(550,18,l),
(550,334,ls),
(550,453,o),
(479,520,o),
(351,520,cs),
(241,520,o),
(159,472,o),
(139,384,c),
(196,440,l),
(143,440,l),
(159,413,l),
(159,458,ls),
(159,501,o),
(150,520,o),
(128,520,c),
(117,520,o),
(95,515,o),
(55,505,c),
(62,465,l),
(142,468,l),
(109,472,l),
(112,429,o),
(114,369,o),
(114,275,cs),
(114,141,o),
(111,60,o),
(104,10,c),
(109,0,l)
);
}
);
width = 667;
},
{
anchors = (
{
name = top;
pos = (-149,510);
}
);
layerId = m004;
shapes = (
{
closed = 1;
nodes = (
(229,0,l),
(234,10,l),
(234,10,o),
(224,89,o),
(224,275,cs),
(224,370,o),
(280,430,o),
(370,430,cs),
(450,430,o),
(500,380,o),
(500,301,c),
(500,196,o),
(496,120,o),
(496,65,cs),
(496,13,o),
(527,-10,o),
(567,-10,c),
(590,-10,o),
(621,-5,o),
(648,-1,c),
(652,80,l),
(552,100,l),
(600,37,l),
(600,329,ls),
(600,446,o),
(530,520,o),
(419,520,cs),
(274,520,o),
(223,447,o),
(208,394,c),
(244,440,l),
(208,440,l),
(224,413,l),
(224,458,ls),
(224,499,o),
(208,520,o),
(163,520,c),
(134,520,o),
(98,513,o),
(65,505,c),
(72,422,l),
(133,425,l),
(114,472,l),
(114,472,o),
(124,415,o),
(124,275,cs),
(124,77,o),
(114,10,o),
(114,10,c),
(119,0,l)
);
}
);
width = 717;
}
);
unicode = 110;
}
{
color = (99,255,209,255);
glyphname = o;
layers = (
{
anchors = (
{
name = top;
pos = (219,520);
}
);
guides = (
{
pos = (-43,461);
userData = {
UFO.identifier = 7lZhvwE96q;
};
}
);
layerId = master01;
shapes = (
{
closed = 1;
nodes = (
(299,30,o),
(334,98,o),
(334,255,cs),
(334,412,o),
(299,480,o),
(219,480,cs),
(140,480,o),
(105,412,o),
(105,255,cs),
(105,98,o),
(140,30,o),
(219,30,cs)
);
},
{
closed = 1;
nodes = (
(111,-10,o),
(50,85,o),
(50,255,cs),
(50,425,o),
(111,520,o),
(219,520,cs),
(328,520,o),
(389,425,o),
(389,255,cs),
(389,85,o),
(328,-10,o),
(219,-10,cs)
);
}
);
width = 439;
},
{
anchors = (
{
name = top;
pos = (239,520);
}
);
guides = (
{
pos = (-23,461);
}
);
layerId = m002;
shapes = (
{
closed = 1;
nodes = (
(308,80,o),
(334,128,o),
(334,255,cs),
(334,382,o),
(308,430,o),
(239,430,cs),
(171,430,o),
(145,382,o),
(145,255,cs),
(145,128,o),
(171,80,o),
(239,80,cs)
);
},
{
closed = 1;
nodes = (
(117,-10,o),
(40,92,o),
(40,255,cs),
(40,418,o),
(117,520,o),
(239,520,cs),
(362,520,o),
(439,418,o),
(439,255,cs),
(439,92,o),
(362,-10,o),
(239,-10,cs)
);
}
);
width = 479;
},
{
anchors = (
{
name = top;
pos = (289,520);
}
);
guides = (
{
pos = (27,461);
}
);
layerId = m003;
shapes = (
{
closed = 1;
nodes = (
(406,30,o),
(464,105,o),
(464,255,cs),
(464,405,o),
(406,480,o),
(289,480,cs),
(173,480,o),
(115,405,o),
(115,255,cs),
(115,105,o),
(173,30,o),
(289,30,cs)
);
},
{
closed = 1;
nodes = (
(148,-10,o),
(60,92,o),
(60,255,cs),
(60,418,o),
(148,520,o),
(289,520,cs),
(430,520,o),
(519,418,o),
(519,255,cs),
(519,92,o),
(430,-10,o),
(289,-10,cs)
);
}
);
width = 579;
},
{
anchors = (
{
name = top;
pos = (329,520);
}
);
guides = (
{
pos = (67,461);
}
);
layerId = m004;
shapes = (
{
closed = 1;
nodes = (
(430,80,o),
(474,133,o),
(474,255,cs),
(474,377,o),
(430,430,o),
(329,430,cs),
(222,430,o),
(175,377,o),
(175,255,cs),
(175,133,o),
(222,80,o),
(329,80,cs)
);
},
{
closed = 1;
nodes = (
(170,-10,o),
(70,92,o),
(70,255,cs),
(70,418,o),
(170,520,o),
(329,520,cs),
(483,520,o),
(579,418,o),
(579,255,cs),
(579,92,o),
(483,-10,o),
(329,-10,cs)
);
}
);
width = 649;
}
);
unicode = 111;
}
{
color = (99,255,209,255);
glyphname = p;
layers = (
{
layerId = master01;
shapes = (
{
closed = 1;
nodes = (
(188,361,o),
(198,458,o),
(198,458,c),
(198,497,o),
(188,520,o),
(143,520,c),
(114,520,o),
(78,512,o),
(45,504,c),
(52,421,l),
(113,425,l),
(94,472,l),
(94,472,o),
(104,415,o),
(107,164,cs),
(107,-65,o),
(101,-167,o),
(97,-240,c),
(102,-250,l),
(211,-250,l),
(216,-240,l),
(205,-115,o),
(199,-71,o),
(199,271,cs),
(199,382,o),
(234,426,o),
(292,426,cs),
(354,426,o),
(385,379,o),
(385,263,cs),
(385,211,ls),
(385,125,o),
(352,80,o),
(299,80,c),
(255,80,o),
(223,93,o),
(181,114,c),
(171,66,l),
(221,66,l),
(196,101,l),
(211,25,o),
(253,-10,o),
(322,-10,cs),
(425,-10,o),
(490,72,o),
(490,218,cs),
(490,267,ls),
(490,438,o),
(434,520,o),
(344,520,cs),
(252,520,o),
(211,466,o),
(188,374,c),
(218,440,l),
(172,440,l),
(188,284,l)
);
}
);
width = 535;
},
{
layerId = m002;
shapes = (
{
closed = 1;
nodes = (
(188,361,o),
(198,458,o),
(198,458,c),
(198,497,o),
(188,520,o),
(143,520,c),
(114,520,o),
(78,512,o),
(45,504,c),
(52,421,l),
(113,425,l),
(94,472,l),
(94,472,o),
(104,415,o),
(107,164,cs),
(107,-65,o),
(101,-167,o),
(97,-240,c),
(102,-250,l),
(211,-250,l),
(216,-240,l),
(205,-115,o),
(199,-71,o),
(199,271,cs),
(199,382,o),
(234,426,o),
(292,426,cs),
(354,426,o),
(385,379,o),
(385,263,cs),
(385,211,ls),
(385,125,o),
(352,80,o),
(299,80,c),
(255,80,o),
(223,93,o),
(181,114,c),
(171,66,l),
(221,66,l),
(196,101,l),
(211,25,o),
(253,-10,o),
(322,-10,cs),
(425,-10,o),
(490,72,o),
(490,218,cs),
(490,267,ls),
(490,438,o),
(434,520,o),
(344,520,cs),
(252,520,o),
(211,466,o),
(188,374,c),
(218,440,l),
(172,440,l),
(188,284,l)
);
}
);
width = 535;
},
{
layerId = m003;
shapes = (
{
closed = 1;
nodes = (
(188,361,o),
(198,458,o),
(198,458,c),
(198,497,o),
(188,520,o),
(143,520,c),
(114,520,o),
(78,512,o),
(45,504,c),
(52,421,l),
(113,425,l),
(94,472,l),
(94,472,o),
(104,415,o),
(107,164,cs),
(107,-65,o),
(101,-167,o),
(97,-240,c),
(102,-250,l),
(211,-250,l),
(216,-240,l),
(205,-115,o),
(199,-71,o),
(199,271,cs),
(199,382,o),
(234,426,o),
(292,426,cs),
(354,426,o),
(385,379,o),
(385,263,cs),
(385,211,ls),
(385,125,o),
(352,80,o),
(299,80,c),
(255,80,o),
(223,93,o),
(181,114,c),
(171,66,l),
(221,66,l),
(196,101,l),
(211,25,o),
(253,-10,o),
(322,-10,cs),
(425,-10,o),
(490,72,o),
(490,218,cs),
(490,267,ls),
(490,438,o),
(434,520,o),
(344,520,cs),
(252,520,o),
(211,466,o),
(188,374,c),
(218,440,l),
(172,440,l),
(188,284,l)
);
}
);
width = 535;
},
{
layerId = m004;
shapes = (
{
closed = 1;
nodes = (
(188,361,o),
(198,458,o),
(198,458,c),
(198,497,o),
(188,520,o),
(143,520,c),
(114,520,o),
(78,512,o),
(45,504,c),
(52,421,l),
(113,425,l),
(94,472,l),
(94,472,o),
(104,415,o),
(107,164,cs),
(107,-65,o),
(101,-167,o),
(97,-240,c),
(102,-250,l),
(211,-250,l),
(216,-240,l),
(205,-115,o),
(199,-71,o),
(199,271,cs),
(199,382,o),
(234,426,o),
(292,426,cs),
(354,426,o),
(385,379,o),
(385,263,cs),
(385,211,ls),
(385,125,o),
(352,80,o),
(299,80,c),
(255,80,o),
(223,93,o),
(181,114,c),
(171,66,l),
(221,66,l),
(196,101,l),
(211,25,o),
(253,-10,o),
(322,-10,cs),
(425,-10,o),
(490,72,o),
(490,218,cs),
(490,267,ls),
(490,438,o),
(434,520,o),
(344,520,cs),
(252,520,o),
(211,466,o),
(188,374,c),
(218,440,l),
(172,440,l),
(188,284,l)
);
}
);
width = 535;
}
);
unicode = 112;
}
{
color = (99,255,209,255);
glyphname = q;
layers = (
{
layerId = master01;
shapes = (
{
closed = 1;
nodes = (
(334,-15,l),
(334,-72,o),
(329,-151,o),
(329,-176,cs),
(329,-227,o),
(348,-250,o),
(387,-250,cs),
(412,-250,o),
(458,-247,o),
(485,-241,c),
(489,-161,l),
(395,-142,l),
(439,-196,l),
(439,-142,o),
(432,-92,o),
(432,139,cs),
(432,405,o),
(437,454,o),
(442,500,c),
(437,510,l),
(340,510,l),
(335,500,l),
(335,203,ls),
(335,130,o),
(304,85,o),
(246,85,cs),
(189,85,o),
(150,130,o),
(150,243,cs),
(150,280,ls),
(150,397,o),
(177,430,o),
(243,430,cs),
(283,430,o),
(309,416,o),
(357,394,c),
(357,442,l),
(321,442,l),
(332,432,l),
(322,477,o),
(280,520,o),
(217,520,cs),
(118,520,o),
(45,465,o),
(45,275,cs),
(45,237,ls),
(45,69,o),
(112,-10,o),
(201,-10,c),
(297,-10,o),
(356,64,o),
(363,123,c),
(314,82,l),
(367,82,l),
(335,163,l)
);
}
);
width = 529;
},
{
layerId = m002;
shapes = (
{
closed = 1;
nodes = (
(334,-15,l),
(334,-72,o),
(329,-151,o),
(329,-176,cs),
(329,-227,o),
(348,-250,o),
(387,-250,cs),
(412,-250,o),
(458,-247,o),
(485,-241,c),
(489,-161,l),
(395,-142,l),
(439,-196,l),
(439,-142,o),
(432,-92,o),
(432,139,cs),
(432,405,o),
(437,454,o),
(442,500,c),
(437,510,l),
(340,510,l),
(335,500,l),
(335,203,ls),
(335,130,o),
(304,85,o),
(246,85,cs),
(189,85,o),
(150,130,o),
(150,243,cs),
(150,280,ls),
(150,397,o),
(177,430,o),
(243,430,cs),
(283,430,o),
(309,416,o),
(357,394,c),
(357,442,l),
(321,442,l),
(332,432,l),
(322,477,o),
(280,520,o),
(217,520,cs),
(118,520,o),
(45,465,o),
(45,275,cs),
(45,237,ls),
(45,69,o),
(112,-10,o),
(201,-10,c),
(297,-10,o),
(356,64,o),
(363,123,c),
(314,82,l),
(367,82,l),
(335,163,l)
);
}
);
width = 529;
},
{
layerId = m003;
shapes = (
{
closed = 1;
nodes = (
(334,-15,l),
(334,-72,o),
(329,-151,o),
(329,-176,cs),
(329,-227,o),
(348,-250,o),
(387,-250,cs),
(412,-250,o),
(458,-247,o),
(485,-241,c),
(489,-161,l),
(395,-142,l),
(439,-196,l),
(439,-142,o),
(432,-92,o),
(432,139,cs),
(432,405,o),
(437,454,o),
(442,500,c),
(437,510,l),
(340,510,l),
(335,500,l),
(335,203,ls),
(335,130,o),
(304,85,o),
(246,85,cs),
(189,85,o),
(150,130,o),
(150,243,cs),
(150,280,ls),
(150,397,o),
(177,430,o),
(243,430,cs),
(283,430,o),
(309,416,o),
(357,394,c),
(357,442,l),
(321,442,l),
(332,432,l),
(322,477,o),
(280,520,o),
(217,520,cs),
(118,520,o),
(45,465,o),
(45,275,cs),
(45,237,ls),
(45,69,o),
(112,-10,o),
(201,-10,c),
(297,-10,o),
(356,64,o),
(363,123,c),
(314,82,l),
(367,82,l),
(335,163,l)
);
}
);
width = 529;
},
{
layerId = m004;
shapes = (
{
closed = 1;
nodes = (
(334,-15,l),
(334,-72,o),
(329,-151,o),
(329,-176,cs),
(329,-227,o),
(348,-250,o),
(387,-250,cs),
(412,-250,o),
(458,-247,o),
(485,-241,c),
(489,-161,l),
(395,-142,l),
(439,-196,l),
(439,-142,o),
(432,-92,o),
(432,139,cs),
(432,405,o),
(437,454,o),
(442,500,c),
(437,510,l),
(340,510,l),
(335,500,l),
(335,203,ls),
(335,130,o),
(304,85,o),
(246,85,cs),
(189,85,o),
(150,130,o),
(150,243,cs),
(150,280,ls),
(150,397,o),
(177,430,o),
(243,430,cs),
(283,430,o),
(309,416,o),
(357,394,c),
(357,442,l),
(321,442,l),
(332,432,l),
(322,477,o),
(280,520,o),
(217,520,cs),
(118,520,o),
(45,465,o),
(45,275,cs),
(45,237,ls),
(45,69,o),
(112,-10,o),
(201,-10,c),
(297,-10,o),
(356,64,o),
(363,123,c),
(314,82,l),
(367,82,l),
(335,163,l)
);
}
);
width = 529;
}
);
metricLeft = "=o";
unicode = 113;
}
{
color = (99,255,209,255);
glyphname = r;
layers = (
{
background = {
shapes = (
{
closed = 1;
nodes = (
(199,262,l),
(199,350,o),
(260,425,o),
(380,399,c),
(401,518,l),
(386,521,o),
(369,524,o),
(354,524,cs),
(268,524,o),
(232,492,o),
(204,399,c),
(194,399,l),
(194,262,l)
);
},
{
closed = 1;
nodes = (
(89,472,o),
(99,415,o),
(99,275,cs),
(99,77,o),
(89,10,o),
(89,10,c),
(94,0,l),
(204,0,l),
(209,10,l),
(209,10,o),
(199,89,o),
(199,275,cs),
(199,352,o),
(199,458,o),
(199,458,c),
(199,497,o),
(183,520,o),
(138,520,c),
(109,520,o),
(73,512,o),
(40,504,c),
(47,421,l),
(108,425,l),
(89,472,l)
);
}
);
};
layerId = master01;
shapes = (
{
closed = 1;
nodes = (
(199,260,l),
(199,355.483,o),
(247,422,o),
(394,422,c),
(404,508,l),
(390,514,o),
(369.232,520,o),
(345,520,c),
(267,520,o),
(231.15,489.176,o),
(204,399,c),
(194,399,l),
(194,262,l)
);
},
{
closed = 1;
nodes = (
(89,472,o),
(99,415,o),
(99,275,cs),
(99,77,o),
(89,10,o),
(89,10,c),
(94,0,l),
(204,0,l),
(209,10,l),
(209,10,o),
(199,89,o),
(199,275,cs),
(199,352,o),
(199,458,o),
(199,458,c),
(199,497,o),
(183,520,o),
(138,520,c),
(109,520,o),
(73,512,o),
(40,504,c),
(47,421,l),
(108,425,l),
(89,472,l)
);
}
);
width = 409;
},
{
background = {
shapes = (
{
closed = 1;
nodes = (
(199,262,l),
(199,350,o),
(260,425,o),
(380,399,c),
(401,518,l),
(386,521,o),
(369,524,o),
(354,524,cs),
(268,524,o),
(232,492,o),
(204,399,c),
(194,399,l),
(194,262,l)
);
},
{
closed = 1;
nodes = (
(89,472,o),
(99,415,o),
(99,275,cs),
(99,77,o),
(89,10,o),
(89,10,c),
(94,0,l),
(204,0,l),
(209,10,l),
(209,10,o),
(199,89,o),
(199,275,cs),
(199,352,o),
(199,458,o),
(199,458,c),
(199,497,o),
(183,520,o),
(138,520,c),
(109,520,o),
(73,512,o),
(40,504,c),
(47,421,l),
(108,425,l),
(89,472,l)
);
}
);
};
layerId = m002;
shapes = (
{
closed = 1;
nodes = (
(199,260,l),
(199,355.483,o),
(247,422,o),
(394,422,c),
(404,508,l),
(390,514,o),
(369.232,520,o),
(345,520,c),
(267,520,o),
(231.15,489.176,o),
(204,399,c),
(194,399,l),
(194,262,l)
);
},
{
closed = 1;
nodes = (
(89,472,o),
(99,415,o),
(99,275,cs),
(99,77,o),
(89,10,o),
(89,10,c),
(94,0,l),
(204,0,l),
(209,10,l),
(209,10,o),
(199,89,o),
(199,275,cs),
(199,352,o),
(199,458,o),
(199,458,c),
(199,497,o),
(183,520,o),
(138,520,c),
(109,520,o),
(73,512,o),
(40,504,c),
(47,421,l),
(108,425,l),
(89,472,l)
);
}
);
width = 409;
},
{
background = {
shapes = (
{
closed = 1;
nodes = (
(199,262,l),
(199,350,o),
(260,425,o),
(380,399,c),
(401,518,l),
(386,521,o),
(369,524,o),
(354,524,cs),
(268,524,o),
(232,492,o),
(204,399,c),
(194,399,l),
(194,262,l)
);
},
{
closed = 1;
nodes = (
(89,472,o),
(99,415,o),
(99,275,cs),
(99,77,o),
(89,10,o),
(89,10,c),
(94,0,l),
(204,0,l),
(209,10,l),
(209,10,o),
(199,89,o),
(199,275,cs),
(199,352,o),
(199,458,o),
(199,458,c),
(199,497,o),
(183,520,o),
(138,520,c),
(109,520,o),
(73,512,o),
(40,504,c),
(47,421,l),
(108,425,l),
(89,472,l)
);
}
);
};
layerId = m003;
shapes = (
{
closed = 1;
nodes = (
(199,260,l),
(199,355.483,o),
(247,422,o),
(394,422,c),
(404,508,l),
(390,514,o),
(369.232,520,o),
(345,520,c),
(267,520,o),
(231.15,489.176,o),
(204,399,c),
(194,399,l),
(194,262,l)
);
},
{
closed = 1;
nodes = (
(89,472,o),
(99,415,o),
(99,275,cs),
(99,77,o),
(89,10,o),
(89,10,c),
(94,0,l),
(204,0,l),
(209,10,l),
(209,10,o),
(199,89,o),
(199,275,cs),
(199,352,o),
(199,458,o),
(199,458,c),
(199,497,o),
(183,520,o),
(138,520,c),
(109,520,o),
(73,512,o),
(40,504,c),
(47,421,l),
(108,425,l),
(89,472,l)
);
}
);
width = 409;
},
{
background = {
shapes = (
{
closed = 1;
nodes = (
(199,262,l),
(199,350,o),
(260,425,o),
(380,399,c),
(401,518,l),
(386,521,o),
(369,524,o),
(354,524,cs),
(268,524,o),
(232,492,o),
(204,399,c),
(194,399,l),
(194,262,l)
);
},
{
closed = 1;
nodes = (
(89,472,o),
(99,415,o),
(99,275,cs),
(99,77,o),
(89,10,o),
(89,10,c),
(94,0,l),
(204,0,l),
(209,10,l),
(209,10,o),
(199,89,o),
(199,275,cs),
(199,352,o),
(199,458,o),
(199,458,c),
(199,497,o),
(183,520,o),
(138,520,c),
(109,520,o),
(73,512,o),
(40,504,c),
(47,421,l),
(108,425,l),
(89,472,l)
);
}
);
};
layerId = m004;
shapes = (
{
closed = 1;
nodes = (
(199,260,l),
(199,355.483,o),
(247,422,o),
(394,422,c),
(404,508,l),
(390,514,o),
(369.232,520,o),
(345,520,c),
(267,520,o),
(231.15,489.176,o),
(204,399,c),
(194,399,l),
(194,262,l)
);
},
{
closed = 1;
nodes = (
(89,472,o),
(99,415,o),
(99,275,cs),
(99,77,o),
(89,10,o),
(89,10,c),
(94,0,l),
(204,0,l),
(209,10,l),
(209,10,o),
(199,89,o),
(199,275,cs),
(199,352,o),
(199,458,o),
(199,458,c),
(199,497,o),
(183,520,o),
(138,520,c),
(109,520,o),
(73,512,o),
(40,504,c),
(47,421,l),
(108,425,l),
(89,472,l)
);
}
);
width = 409;
}
);
unicode = 114;
}
{
glyphname = acute;
layers = (
{
anchors = (
{
name = _top;
pos = (186,510);
}
);
background = {
shapes = (
{
closed = 1;
nodes = (
(96,613,l),
(67,834,l),
(75,842,l),
(186,842,l),
(194,834,l),
(165,613,l),
(159,607,l),
(102,607,l)
);
}
);
};
layerId = master01;
shapes = (
{
closed = 1;
nodes = (
(100,617,l),
(256,778,l),
(266,778,l),
(332,697,l),
(332,687,l),
(138,570,l),
(131,570,l),
(100,609,l)
);
}
);
width = 435;
},
{
anchors = (
{
name = _top;
pos = (186,510);
}
);
background = {
shapes = (
{
closed = 1;
nodes = (
(96,613,l),
(67,834,l),
(75,842,l),
(186,842,l),
(194,834,l),
(165,613,l),
(159,607,l),
(102,607,l)
);
}
);
};
layerId = m002;
shapes = (
{
closed = 1;
nodes = (
(100,617,l),
(256,778,l),
(266,778,l),
(332,697,l),
(332,687,l),
(138,570,l),
(131,570,l),
(100,609,l)
);
}
);
width = 435;
},
{
anchors = (
{
name = _top;
pos = (186,510);
}
);
background = {
shapes = (
{
closed = 1;
nodes = (
(96,613,l),
(67,834,l),
(75,842,l),
(186,842,l),
(194,834,l),
(165,613,l),
(159,607,l),
(102,607,l)
);
}
);
};
layerId = m003;
shapes = (
{
closed = 1;
nodes = (
(100,617,l),
(256,778,l),
(266,778,l),
(332,697,l),
(332,687,l),
(138,570,l),
(131,570,l),
(100,609,l)
);
}
);
width = 435;
},
{
anchors = (
{
name = _top;
pos = (186,510);
}
);
background = {
shapes = (
{
closed = 1;
nodes = (
(96,613,l),
(67,834,l),
(75,842,l),
(186,842,l),
(194,834,l),
(165,613,l),
(159,607,l),
(102,607,l)
);
}
);
};
layerId = m004;
shapes = (
{
closed = 1;
nodes = (
(100,617,l),
(256,778,l),
(266,778,l),
(332,697,l),
(332,687,l),
(138,570,l),
(131,570,l),
(100,609,l)
);
}
);
width = 435;
}
);
unicode = 180;
}
{
glyphname = tilde;
layers = (
{
anchors = (
{
name = _top;
pos = (195,510);
}
);
layerId = master01;
shapes = (
{
closed = 1;
nodes = (
(125,623,o),
(87,601,o),
(58,583,c),
(30,608,l),
(52,646,o),
(99,708,o),
(149,708,cs),
(172,708,o),
(238,664,o),
(259,664,cs),
(278,664,o),
(315,686,o),
(344,703,c),
(372,679,l),
(350,642,o),
(302,578,o),
(252,578,cs),
(232,578,o),
(169,623,o),
(144,623,cs)
);
}
);
width = 402;
},
{
anchors = (
{
name = _top;
pos = (195,510);
}
);
layerId = m002;
shapes = (
{
closed = 1;
nodes = (
(125,623,o),
(87,601,o),
(58,583,c),
(30,608,l),
(52,646,o),
(99,708,o),
(149,708,cs),
(172,708,o),
(238,664,o),
(259,664,cs),
(278,664,o),
(315,686,o),
(344,703,c),
(372,679,l),
(350,642,o),
(302,578,o),
(252,578,cs),
(232,578,o),
(169,623,o),
(144,623,cs)
);
}
);
width = 402;
},
{
anchors = (
{
name = _top;
pos = (195,510);
}
);
layerId = m003;
shapes = (
{
closed = 1;
nodes = (
(125,623,o),
(87,601,o),
(58,583,c),
(30,608,l),
(52,646,o),
(99,708,o),
(149,708,cs),
(172,708,o),
(238,664,o),
(259,664,cs),
(278,664,o),
(315,686,o),
(344,703,c),
(372,679,l),
(350,642,o),
(302,578,o),
(252,578,cs),
(232,578,o),
(169,623,o),
(144,623,cs)
);
}
);
width = 402;
},
{
anchors = (
{
name = _top;
pos = (195,510);
}
);
layerId = m004;
shapes = (
{
closed = 1;
nodes = (
(125,623,o),
(87,601,o),
(58,583,c),
(30,608,l),
(52,646,o),
(99,708,o),
(149,708,cs),
(172,708,o),
(238,664,o),
(259,664,cs),
(278,664,o),
(315,686,o),
(344,703,c),
(372,679,l),
(350,642,o),
(302,578,o),
(252,578,cs),
(232,578,o),
(169,623,o),
(144,623,cs)
);
}
);
width = 402;
}
);
unicode = 732;
}
{
color = (99,255,209,255);
export = 0;
glyphname = E.001;
layers = (
{
layerId = master01;
shapes = (
{
closed = 1;
nodes = (
(90,10,o),
(100,190,o),
(100,335,cs),
(100,480,o),
(90,660,o),
(90,660,c),
(95,670,l),
(141,669,o),
(147,665,o),
(244,666,cs),
(334,666,o),
(374,669,o),
(395,670,c),
(400,660,l),
(400,624,l),
(395,615,l),
(395,615,o),
(323,622,o),
(146,623,c),
(146,623,l),
(142,574,o),
(140,484,o),
(140,347.014,c),
(270,347,o),
(305,355,o),
(305,355,c),
(311,353,l),
(311,329,l),
(305,325,l),
(305,325,o),
(273,333,o),
(140,333,c),
(140,192,o),
(151,107,o),
(155,57,c),
(333,58,o),
(395,57,o),
(395,57,c),
(400,88,l),
(400,10,l),
(395,0,l),
(372,4,o),
(313,3,o),
(240,4,cs),
(155,5,o),
(140,3,o),
(95,0,c),
(90,10,l)
);
}
);
width = 440;
},
{
layerId = m002;
shapes = (
{
closed = 1;
nodes = (
(170,172,o),
(172,96,o),
(178,53,c),
(144,89,l),
(338,89,o),
(395,97,o),
(395,97,c),
(400,88,l),
(400,10,l),
(395,0,l),
(372,4,o),
(313,3,o),
(240,4,c),
(155,5,o),
(110,3,o),
(65,0,c),
(60,10,l),
(60,10,o),
(70,190,o),
(70,335,cs),
(70,480,o),
(60,660,o),
(60,660,c),
(65,670,l),
(111,669,o),
(147,665,o),
(244,666,c),
(334,666,o),
(374,669,o),
(395,670,c),
(400,660,l),
(400,574,l),
(395,565,l),
(395,565,o),
(338,573,o),
(144,573,c),
(178,617,l),
(172,574,o),
(170,498,o),
(170,335,cs)
);
},
{
closed = 1;
nodes = (
(110,377,l),
(248,377,o),
(331,385,o),
(331,385,c),
(341,381,l),
(341,289,l),
(331,285,l),
(331,285,o),
(251,293,o),
(110,293,c)
);
}
);
width = 440;
},
{
layerId = m003;
shapes = (
{
closed = 1;
nodes = (
(90,10,o),
(100,190,o),
(100,335,cs),
(100,480,o),
(90,660,o),
(90,660,c),
(95,670,l),
(141,669,o),
(147,665,o),
(244,666,cs),
(334,666,o),
(374,669,o),
(395,670,c),
(400,660,l),
(400,624,l),
(395,615,l),
(395,615,o),
(323,622,o),
(146,623,c),
(146,623,l),
(142,574,o),
(140,484,o),
(140,347.014,c),
(270,347,o),
(305,355,o),
(305,355,c),
(311,353,l),
(311,329,l),
(305,325,l),
(305,325,o),
(273,333,o),
(140,333,c),
(140,192,o),
(151,107,o),
(155,57,c),
(333,58,o),
(395,57,o),
(395,57,c),
(400,88,l),
(400,10,l),
(395,0,l),
(372,4,o),
(313,3,o),
(240,4,cs),
(155,5,o),
(140,3,o),
(95,0,c),
(90,10,l)
);
}
);
width = 440;
},
{
layerId = m004;
shapes = (
{
closed = 1;
nodes = (
(170,172,o),
(172,96,o),
(178,53,c),
(144,89,l),
(338,89,o),
(395,97,o),
(395,97,c),
(400,88,l),
(400,10,l),
(395,0,l),
(372,4,o),
(313,3,o),
(240,4,c),
(155,5,o),
(110,3,o),
(65,0,c),
(60,10,l),
(60,10,o),
(70,190,o),
(70,335,cs),
(70,480,o),
(60,660,o),
(60,660,c),
(65,670,l),
(111,669,o),
(147,665,o),
(244,666,c),
(334,666,o),
(374,669,o),
(395,670,c),
(400,660,l),
(400,574,l),
(395,565,l),
(395,565,o),
(338,573,o),
(144,573,c),
(178,617,l),
(172,574,o),
(170,498,o),
(170,335,cs)
);
},
{
closed = 1;
nodes = (
(110,377,l),
(248,377,o),
(331,385,o),
(331,385,c),
(341,381,l),
(341,289,l),
(331,285,l),
(331,285,o),
(251,293,o),
(110,293,c)
);
}
);
width = 440;
}
);
}
{
glyphname = N.001;
layers = (
{
layerId = master01;
shapes = (
{
closed = 1;
nodes = (
(409,82,l),
(364,203,l),
(176,670,l),
(151,670,o),
(82,670,o),
(55,670,c),
(50,664,l),
(54,635,o),
(65,458,o),
(65,348,cs),
(65,82,o),
(65,152,o),
(55,10,c),
(60,0,l),
(169,0,l),
(174,10,l),
(163,152,o),
(162,86,o),
(162,410,cs),
(162,447,o),
(109,603,o),
(107,629,c),
(116,568,l),
(173,407,l),
(350,0,l),
(375,0,o),
(451,0,o),
(478,0,c),
(483,6,l),
(479,35,o),
(468,212,o),
(468,322,cs),
(468,588,o),
(468,518,o),
(478,660,c),
(473,670,l),
(364,670,l),
(359,660,l),
(370,518,o),
(371,584,o),
(371,260,cs),
(371,178,o),
(392,124,o),
(394,55,c)
);
}
);
width = 533;
},
{
layerId = m002;
shapes = (
{
closed = 1;
nodes = (
(409,82,l),
(364,203,l),
(176,670,l),
(151,670,o),
(82,670,o),
(55,670,c),
(50,664,l),
(54,635,o),
(65,458,o),
(65,348,cs),
(65,82,o),
(65,152,o),
(55,10,c),
(60,0,l),
(169,0,l),
(174,10,l),
(163,152,o),
(162,86,o),
(162,410,cs),
(162,447,o),
(109,603,o),
(107,629,c),
(116,568,l),
(173,407,l),
(350,0,l),
(375,0,o),
(451,0,o),
(478,0,c),
(483,6,l),
(479,35,o),
(468,212,o),
(468,322,cs),
(468,588,o),
(468,518,o),
(478,660,c),
(473,670,l),
(364,670,l),
(359,660,l),
(370,518,o),
(371,584,o),
(371,260,cs),
(371,178,o),
(392,124,o),
(394,55,c)
);
}
);
width = 533;
},
{
layerId = m003;
shapes = (
{
closed = 1;
nodes = (
(409,82,l),
(364,203,l),
(176,670,l),
(151,670,o),
(82,670,o),
(55,670,c),
(50,664,l),
(54,635,o),
(65,458,o),
(65,348,cs),
(65,82,o),
(65,152,o),
(55,10,c),
(60,0,l),
(169,0,l),
(174,10,l),
(163,152,o),
(162,86,o),
(162,410,cs),
(162,447,o),
(109,603,o),
(107,629,c),
(116,568,l),
(173,407,l),
(350,0,l),
(375,0,o),
(451,0,o),
(478,0,c),
(483,6,l),
(479,35,o),
(468,212,o),
(468,322,cs),
(468,588,o),
(468,518,o),
(478,660,c),
(473,670,l),
(364,670,l),
(359,660,l),
(370,518,o),
(371,584,o),
(371,260,cs),
(371,178,o),
(392,124,o),
(394,55,c)
);
}
);
width = 533;
},
{
layerId = m004;
shapes = (
{
closed = 1;
nodes = (
(409,82,l),
(364,203,l),
(176,670,l),
(151,670,o),
(82,670,o),
(55,670,c),
(50,664,l),
(54,635,o),
(65,458,o),
(65,348,cs),
(65,82,o),
(65,152,o),
(55,10,c),
(60,0,l),
(169,0,l),
(174,10,l),
(163,152,o),
(162,86,o),
(162,410,cs),
(162,447,o),
(109,603,o),
(107,629,c),
(116,568,l),
(173,407,l),
(350,0,l),
(375,0,o),
(451,0,o),
(478,0,c),
(483,6,l),
(479,35,o),
(468,212,o),
(468,322,cs),
(468,588,o),
(468,518,o),
(478,660,c),
(473,670,l),
(364,670,l),
(359,660,l),
(370,518,o),
(371,584,o),
(371,260,cs),
(371,178,o),
(392,124,o),
(394,55,c)
);
}
);
width = 533;
}
);
}
{
glyphname = N.002;
layers = (
{
layerId = master01;
shapes = (
{
closed = 1;
nodes = (
(428,92,l),
(393,93,l),
(374,203,l),
(186,670,l),
(161,670,o),
(92,670,o),
(65,670,c),
(60,664,l),
(64,635,o),
(75,458,o),
(75,348,cs),
(75,82,o),
(75,152,o),
(65,10,c),
(70,0,l),
(179,0,l),
(184,10,l),
(173,152,o),
(172,86,o),
(172,410,cs),
(172,485,o),
(170,574,o),
(168,635,c),
(142,546,l),
(162,546,l),
(183,407,l),
(360,0,l),
(385,0,o),
(461,0,o),
(488,0,c),
(493,6,l),
(489,35,o),
(478,212,o),
(478,322,cs),
(478,588,o),
(478,518,o),
(488,660,c),
(483,670,l),
(374,670,l),
(369,660,l),
(380,518,o),
(381,584,o),
(381,260,cs),
(381,178,o),
(384,124,o),
(386,55,c)
);
}
);
width = 553;
},
{
layerId = m002;
shapes = (
{
closed = 1;
nodes = (
(428,92,l),
(393,93,l),
(374,203,l),
(186,670,l),
(161,670,o),
(92,670,o),
(65,670,c),
(60,664,l),
(64,635,o),
(75,458,o),
(75,348,cs),
(75,82,o),
(75,152,o),
(65,10,c),
(70,0,l),
(179,0,l),
(184,10,l),
(173,152,o),
(172,86,o),
(172,410,cs),
(172,485,o),
(170,574,o),
(168,635,c),
(142,546,l),
(162,546,l),
(183,407,l),
(360,0,l),
(385,0,o),
(461,0,o),
(488,0,c),
(493,6,l),
(489,35,o),
(478,212,o),
(478,322,cs),
(478,588,o),
(478,518,o),
(488,660,c),
(483,670,l),
(374,670,l),
(369,660,l),
(380,518,o),
(381,584,o),
(381,260,cs),
(381,178,o),
(384,124,o),
(386,55,c)
);
}
);
width = 553;
},
{
layerId = m003;
shapes = (
{
closed = 1;
nodes = (
(428,92,l),
(393,93,l),
(374,203,l),
(186,670,l),
(161,670,o),
(92,670,o),
(65,670,c),
(60,664,l),
(64,635,o),
(75,458,o),
(75,348,cs),
(75,82,o),
(75,152,o),
(65,10,c),
(70,0,l),
(179,0,l),
(184,10,l),
(173,152,o),
(172,86,o),
(172,410,cs),
(172,485,o),
(170,574,o),
(168,635,c),
(142,546,l),
(162,546,l),
(183,407,l),
(360,0,l),
(385,0,o),
(461,0,o),
(488,0,c),
(493,6,l),
(489,35,o),
(478,212,o),
(478,322,cs),
(478,588,o),
(478,518,o),
(488,660,c),
(483,670,l),
(374,670,l),
(369,660,l),
(380,518,o),
(381,584,o),
(381,260,cs),
(381,178,o),
(384,124,o),
(386,55,c)
);
}
);
width = 553;
},
{
layerId = m004;
shapes = (
{
closed = 1;
nodes = (
(428,92,l),
(393,93,l),
(374,203,l),
(186,670,l),
(161,670,o),
(92,670,o),
(65,670,c),
(60,664,l),
(64,635,o),
(75,458,o),
(75,348,cs),
(75,82,o),
(75,152,o),
(65,10,c),
(70,0,l),
(179,0,l),
(184,10,l),
(173,152,o),
(172,86,o),
(172,410,cs),
(172,485,o),
(170,574,o),
(168,635,c),
(142,546,l),
(162,546,l),
(183,407,l),
(360,0,l),
(385,0,o),
(461,0,o),
(488,0,c),
(493,6,l),
(489,35,o),
(478,212,o),
(478,322,cs),
(478,588,o),
(478,518,o),
(488,660,c),
(483,670,l),
(374,670,l),
(369,660,l),
(380,518,o),
(381,584,o),
(381,260,cs),
(381,178,o),
(384,124,o),
(386,55,c)
);
}
);
width = 553;
}
);
}
{
glyphname = N.003;
layers = (
{
layerId = master01;
shapes = (
{
closed = 1;
nodes = (
(424,-5,l),
(430,-5,l),
(478,118,l),
(248,618,ls),
(230,658,o),
(217,680,o),
(149,680,c),
(115,680,o),
(84,673,o),
(50,661,c),
(59,576,l),
(171,580,l),
(131,632,l)
);
},
{
closed = 1;
nodes = (
(514,5,l),
(519,17,l),
(519,85,o),
(509,263,o),
(509,352,cs),
(509,442,o),
(519,660,o),
(519,660,c),
(514,670,l),
(419,670,l),
(414,660,l),
(414,660,o),
(424,443,o),
(424,353,cs),
(424,262,o),
(426,73,o),
(426,-5,c)
);
},
{
closed = 1;
nodes = (
(210,0,l),
(215,12,l),
(214,82,o),
(205,262,o),
(205,352,cs),
(205,452,o),
(177,585,o),
(177,585,c),
(110,585,l),
(110,585,o),
(120,420,o),
(120,352,cs),
(120,262,o),
(114,77,o),
(115,11,c),
(120,0,l)
);
}
);
width = 609;
},
{
layerId = m002;
shapes = (
{
closed = 1;
nodes = (
(424,-5,l),
(430,-5,l),
(478,118,l),
(248,618,ls),
(230,658,o),
(217,680,o),
(149,680,c),
(115,680,o),
(84,673,o),
(50,661,c),
(59,576,l),
(171,580,l),
(131,632,l)
);
},
{
closed = 1;
nodes = (
(514,5,l),
(519,17,l),
(519,85,o),
(509,263,o),
(509,352,cs),
(509,442,o),
(519,660,o),
(519,660,c),
(514,670,l),
(419,670,l),
(414,660,l),
(414,660,o),
(424,443,o),
(424,353,cs),
(424,262,o),
(426,73,o),
(426,-5,c)
);
},
{
closed = 1;
nodes = (
(210,0,l),
(215,12,l),
(214,82,o),
(205,262,o),
(205,352,cs),
(205,452,o),
(177,585,o),
(177,585,c),
(110,585,l),
(110,585,o),
(120,420,o),
(120,352,cs),
(120,262,o),
(114,77,o),
(115,11,c),
(120,0,l)
);
}
);
width = 609;
},
{
layerId = m003;
shapes = (
{
closed = 1;
nodes = (
(424,-5,l),
(430,-5,l),
(478,118,l),
(248,618,ls),
(230,658,o),
(217,680,o),
(149,680,c),
(115,680,o),
(84,673,o),
(50,661,c),
(59,576,l),
(171,580,l),
(131,632,l)
);
},
{
closed = 1;
nodes = (
(514,5,l),
(519,17,l),
(519,85,o),
(509,263,o),
(509,352,cs),
(509,442,o),
(519,660,o),
(519,660,c),
(514,670,l),
(419,670,l),
(414,660,l),
(414,660,o),
(424,443,o),
(424,353,cs),
(424,262,o),
(426,73,o),
(426,-5,c)
);
},
{
closed = 1;
nodes = (
(210,0,l),
(215,12,l),
(214,82,o),
(205,262,o),
(205,352,cs),
(205,452,o),
(177,585,o),
(177,585,c),
(110,585,l),
(110,585,o),
(120,420,o),
(120,352,cs),
(120,262,o),
(114,77,o),
(115,11,c),
(120,0,l)
);
}
);
width = 609;
},
{
layerId = m004;
shapes = (
{
closed = 1;
nodes = (
(424,-5,l),
(430,-5,l),
(478,118,l),
(248,618,ls),
(230,658,o),
(217,680,o),
(149,680,c),
(115,680,o),
(84,673,o),
(50,661,c),
(59,576,l),
(171,580,l),
(131,632,l)
);
},
{
closed = 1;
nodes = (
(514,5,l),
(519,17,l),
(519,85,o),
(509,263,o),
(509,352,cs),
(509,442,o),
(519,660,o),
(519,660,c),
(514,670,l),
(419,670,l),
(414,660,l),
(414,660,o),
(424,443,o),
(424,353,cs),
(424,262,o),
(426,73,o),
(426,-5,c)
);
},
{
closed = 1;
nodes = (
(210,0,l),
(215,12,l),
(214,82,o),
(205,262,o),
(205,352,cs),
(205,452,o),
(177,585,o),
(177,585,c),
(110,585,l),
(110,585,o),
(120,420,o),
(120,352,cs),
(120,262,o),
(114,77,o),
(115,11,c),
(120,0,l)
);
}
);
width = 609;
}
);
}
{
glyphname = Q.alt;
layers = (
{
background = {
shapes = (
{
closed = 1;
nodes = (
(419,-10,o),
(487,95,o),
(487,335,cs),
(487,575,o),
(419,680,o),
(263,680,cs),
(108,680,o),
(40,575,o),
(40,335,cs),
(40,95,o),
(108,-10,o),
(263,-10,cs)
);
},
{
closed = 1;
nodes = (
(175,90,o),
(151,143,o),
(151,335,cs),
(151,527,o),
(175,580,o),
(263,580,cs),
(352,580,o),
(376,527,o),
(376,335,cs),
(376,143,o),
(352,90,o),
(263,90,cs)
);
},
{
closed = 1;
nodes = (
(282,-147,l),
(372,-132,l),
(377,-120,l),
(290,169,l),
(234,161,l),
(264,-141,l)
);
}
);
};
layerId = master01;
shapes = (
{
closed = 1;
nodes = (
(419,-10,o),
(487,95,o),
(487,335,cs),
(487,575,o),
(419,680,o),
(263,680,cs),
(108,680,o),
(40,575,o),
(40,335,cs),
(40,95,o),
(108,-10,o),
(263,-10,cs)
);
},
{
closed = 1;
nodes = (
(175,90,o),
(151,143,o),
(151,335,cs),
(151,527,o),
(175,580,o),
(263,580,cs),
(352,580,o),
(376,527,o),
(376,335,cs),
(376,143,o),
(352,90,o),
(263,90,cs)
);
},
{
closed = 1;
nodes = (
(317,-188,o),
(384,-188,cs),
(419,-188,o),
(449,-176,o),
(506,-140,c),
(458,-64,l),
(353,-120,l),
(406,-137,l),
(363,-89,o),
(321,-15,o),
(273,56,c),
(216,30,l),
(284,-152,o)
);
}
);
width = 527;
},
{
background = {
shapes = (
{
closed = 1;
nodes = (
(419,-10,o),
(487,95,o),
(487,335,cs),
(487,575,o),
(419,680,o),
(263,680,cs),
(108,680,o),
(40,575,o),
(40,335,cs),
(40,95,o),
(108,-10,o),
(263,-10,cs)
);
},
{
closed = 1;
nodes = (
(175,90,o),
(151,143,o),
(151,335,cs),
(151,527,o),
(175,580,o),
(263,580,cs),
(352,580,o),
(376,527,o),
(376,335,cs),
(376,143,o),
(352,90,o),
(263,90,cs)
);
},
{
closed = 1;
nodes = (
(282,-147,l),
(372,-132,l),
(377,-120,l),
(290,169,l),
(234,161,l),
(264,-141,l)
);
}
);
};
layerId = m002;
shapes = (
{
closed = 1;
nodes = (
(419,-10,o),
(487,95,o),
(487,335,cs),
(487,575,o),
(419,680,o),
(263,680,cs),
(108,680,o),
(40,575,o),
(40,335,cs),
(40,95,o),
(108,-10,o),
(263,-10,cs)
);
},
{
closed = 1;
nodes = (
(175,90,o),
(151,143,o),
(151,335,cs),
(151,527,o),
(175,580,o),
(263,580,cs),
(352,580,o),
(376,527,o),
(376,335,cs),
(376,143,o),
(352,90,o),
(263,90,cs)
);
},
{
closed = 1;
nodes = (
(317,-188,o),
(384,-188,cs),
(419,-188,o),
(449,-176,o),
(506,-140,c),
(458,-64,l),
(353,-120,l),
(406,-137,l),
(363,-89,o),
(321,-15,o),
(273,56,c),
(216,30,l),
(284,-152,o)
);
}
);
width = 527;
},
{
background = {
shapes = (
{
closed = 1;
nodes = (
(419,-10,o),
(487,95,o),
(487,335,cs),
(487,575,o),
(419,680,o),
(263,680,cs),
(108,680,o),
(40,575,o),
(40,335,cs),
(40,95,o),
(108,-10,o),
(263,-10,cs)
);
},
{
closed = 1;
nodes = (
(175,90,o),
(151,143,o),
(151,335,cs),
(151,527,o),
(175,580,o),
(263,580,cs),
(352,580,o),
(376,527,o),
(376,335,cs),
(376,143,o),
(352,90,o),
(263,90,cs)
);
},
{
closed = 1;
nodes = (
(282,-147,l),
(372,-132,l),
(377,-120,l),
(290,169,l),
(234,161,l),
(264,-141,l)
);
}
);
};
layerId = m003;
shapes = (
{
closed = 1;
nodes = (
(419,-10,o),
(487,95,o),
(487,335,cs),
(487,575,o),
(419,680,o),
(263,680,cs),
(108,680,o),
(40,575,o),
(40,335,cs),
(40,95,o),
(108,-10,o),
(263,-10,cs)
);
},
{
closed = 1;
nodes = (
(175,90,o),
(151,143,o),
(151,335,cs),
(151,527,o),
(175,580,o),
(263,580,cs),
(352,580,o),
(376,527,o),
(376,335,cs),
(376,143,o),
(352,90,o),
(263,90,cs)
);
},
{
closed = 1;
nodes = (
(317,-188,o),
(384,-188,cs),
(419,-188,o),
(449,-176,o),
(506,-140,c),
(458,-64,l),
(353,-120,l),
(406,-137,l),
(363,-89,o),
(321,-15,o),
(273,56,c),
(216,30,l),
(284,-152,o)
);
}
);
width = 527;
},
{
background = {
shapes = (
{
closed = 1;
nodes = (
(419,-10,o),
(487,95,o),
(487,335,cs),
(487,575,o),
(419,680,o),
(263,680,cs),
(108,680,o),
(40,575,o),
(40,335,cs),
(40,95,o),
(108,-10,o),
(263,-10,cs)
);
},
{
closed = 1;
nodes = (
(175,90,o),
(151,143,o),
(151,335,cs),
(151,527,o),
(175,580,o),
(263,580,cs),
(352,580,o),
(376,527,o),
(376,335,cs),
(376,143,o),
(352,90,o),
(263,90,cs)
);
},
{
closed = 1;
nodes = (
(282,-147,l),
(372,-132,l),
(377,-120,l),
(290,169,l),
(234,161,l),
(264,-141,l)
);
}
);
};
layerId = m004;
shapes = (
{
closed = 1;
nodes = (
(419,-10,o),
(487,95,o),
(487,335,cs),
(487,575,o),
(419,680,o),
(263,680,cs),
(108,680,o),
(40,575,o),
(40,335,cs),
(40,95,o),
(108,-10,o),
(263,-10,cs)
);
},
{
closed = 1;
nodes = (
(175,90,o),
(151,143,o),
(151,335,cs),
(151,527,o),
(175,580,o),
(263,580,cs),
(352,580,o),
(376,527,o),
(376,335,cs),
(376,143,o),
(352,90,o),
(263,90,cs)
);
},
{
closed = 1;
nodes = (
(317,-188,o),
(384,-188,cs),
(419,-188,o),
(449,-176,o),
(506,-140,c),
(458,-64,l),
(353,-120,l),
(406,-137,l),
(363,-89,o),
(321,-15,o),
(273,56,c),
(216,30,l),
(284,-152,o)
);
}
);
width = 527;
}
);
}
{
glyphname = T.001;
layers = (
{
layerId = master01;
shapes = (
{
closed = 1;
nodes = (
(129,559,l),
(137,644,l),
(111,558,l),
(302,560,l),
(472,558,l),
(498,459,l),
(578,487,l),
(578,506,o),
(572,556,o),
(567,591,cs),
(557,660,o),
(530,672,o),
(464,672,c),
(472,558,l),
(496,558,l),
(464,672,l),
(302,670,l),
(137,670,ls),
(71,670,o),
(44,660,o),
(34,591,cs),
(29,556,o),
(23,506,o),
(23,487,c),
(103,459,l)
);
},
{
closed = 1;
nodes = (
(357,0,l),
(362,10,l),
(362,10,o),
(352,253,o),
(352,352,cs),
(352,444,o),
(362,660,o),
(362,660,c),
(357,670,l),
(247,670,l),
(242,660,l),
(242,660,o),
(252,441,o),
(252,352,c),
(252,315,ls),
(252,213,o),
(242,10,o),
(242,10,c),
(247,0,l)
);
}
);
width = 555;
},
{
layerId = m002;
shapes = (
{
closed = 1;
nodes = (
(129,559,l),
(137,644,l),
(111,558,l),
(302,560,l),
(472,558,l),
(498,459,l),
(578,487,l),
(578,506,o),
(572,556,o),
(567,591,cs),
(557,660,o),
(530,672,o),
(464,672,c),
(472,558,l),
(496,558,l),
(464,672,l),
(302,670,l),
(137,670,ls),
(71,670,o),
(44,660,o),
(34,591,cs),
(29,556,o),
(23,506,o),
(23,487,c),
(103,459,l)
);
},
{
closed = 1;
nodes = (
(357,0,l),
(362,10,l),
(362,10,o),
(352,253,o),
(352,352,cs),
(352,444,o),
(362,660,o),
(362,660,c),
(357,670,l),
(247,670,l),
(242,660,l),
(242,660,o),
(252,441,o),
(252,352,c),
(252,315,ls),
(252,213,o),
(242,10,o),
(242,10,c),
(247,0,l)
);
}
);
width = 555;
},
{
layerId = m003;
shapes = (
{
closed = 1;
nodes = (
(129,559,l),
(137,644,l),
(111,558,l),
(302,560,l),
(472,558,l),
(498,459,l),
(578,487,l),
(578,506,o),
(572,556,o),
(567,591,cs),
(557,660,o),
(530,672,o),
(464,672,c),
(472,558,l),
(496,558,l),
(464,672,l),
(302,670,l),
(137,670,ls),
(71,670,o),
(44,660,o),
(34,591,cs),
(29,556,o),
(23,506,o),
(23,487,c),
(103,459,l)
);
},
{
closed = 1;
nodes = (
(357,0,l),
(362,10,l),
(362,10,o),
(352,253,o),
(352,352,cs),
(352,444,o),
(362,660,o),
(362,660,c),
(357,670,l),
(247,670,l),
(242,660,l),
(242,660,o),
(252,441,o),
(252,352,c),
(252,315,ls),
(252,213,o),
(242,10,o),
(242,10,c),
(247,0,l)
);
}
);
width = 555;
},
{
layerId = m004;
shapes = (
{
closed = 1;
nodes = (
(129,559,l),
(137,644,l),
(111,558,l),
(302,560,l),
(472,558,l),
(498,459,l),
(578,487,l),
(578,506,o),
(572,556,o),
(567,591,cs),
(557,660,o),
(530,672,o),
(464,672,c),
(472,558,l),
(496,558,l),
(464,672,l),
(302,670,l),
(137,670,ls),
(71,670,o),
(44,660,o),
(34,591,cs),
(29,556,o),
(23,506,o),
(23,487,c),
(103,459,l)
);
},
{
closed = 1;
nodes = (
(357,0,l),
(362,10,l),
(362,10,o),
(352,253,o),
(352,352,cs),
(352,444,o),
(362,660,o),
(362,660,c),
(357,670,l),
(247,670,l),
(242,660,l),
(242,660,o),
(252,441,o),
(252,352,c),
(252,315,ls),
(252,213,o),
(242,10,o),
(242,10,c),
(247,0,l)
);
}
);
width = 555;
}
);
}
{
glyphname = a.alt;
layers = (
{
background = {
shapes = (
{
closed = 1;
nodes = (
(388,-9,o),
(436,-6,o),
(463,0,c),
(467,80,l),
(367,100,l),
(415,37,l),
(415,294,ls),
(415,449,o),
(360,520,o),
(255,520,c),
(165,520,o),
(113,499,o),
(49,471,c),
(48,467,l),
(75,403,l),
(78,403,l),
(121,419,o),
(151,430,o),
(207,430,cs),
(276,430,o),
(316,407,o),
(316,344,cs),
(316,57,ls),
(316,12,o),
(327,-9,o),
(363,-9,cs)
);
},
{
closed = 1;
nodes = (
(242,-10,o),
(280,27,o),
(311,70,c),
(327,70,l),
(327,110,l),
(288,94,o),
(249,80,o),
(200,80,c),
(157,80,o),
(139,111,o),
(139,157,c),
(139,234,o),
(180,259,o),
(320,259,c),
(320,327,l),
(140,327,o),
(36,296,o),
(36,146,cs),
(36,37,o),
(80,-10,o),
(164,-10,c)
);
}
);
};
layerId = master01;
shapes = (
{
closed = 1;
nodes = (
(333,84,o),
(333,64,cs),
(333,20,o),
(351,-10,o),
(389,-10,cs),
(417,-10,o),
(453.887,-5.022,o),
(479,0,c),
(483,79,l),
(387,98,l),
(431,44,l),
(431,98,o),
(424,147,o),
(424,288,c),
(424,405,o),
(428.88,471.327,o),
(434,500,c),
(429,510,l),
(352,517,l),
(344,510,l),
(327,416,l),
(327,260,ls),
(327,138,o),
(298,85,o),
(240,85,cs),
(179,85,o),
(147,164,o),
(147,277,cs),
(147,390,o),
(175,425,o),
(237,425,cs),
(269,425,o),
(312,412,o),
(351,386,c),
(377,440,l),
(310,440,l),
(330,429,l),
(313,466,o),
(277,520,o),
(214,520,cs),
(118,520,o),
(37,481,o),
(37,258,cs),
(37,79,o),
(94,-10,o),
(207,-10,c),
(287,-10,o),
(326,59,o),
(349,107,c),
(337,122,l),
(334,107,o)
);
}
);
width = 496;
},
{
background = {
shapes = (
{
closed = 1;
nodes = (
(388,-9,o),
(436,-6,o),
(463,0,c),
(467,80,l),
(367,100,l),
(415,37,l),
(415,294,ls),
(415,449,o),
(360,520,o),
(255,520,c),
(165,520,o),
(113,499,o),
(49,471,c),
(48,467,l),
(75,403,l),
(78,403,l),
(121,419,o),
(151,430,o),
(207,430,cs),
(276,430,o),
(316,407,o),
(316,344,cs),
(316,57,ls),
(316,12,o),
(327,-9,o),
(363,-9,cs)
);
},
{
closed = 1;
nodes = (
(242,-10,o),
(280,27,o),
(311,70,c),
(327,70,l),
(327,110,l),
(288,94,o),
(249,80,o),
(200,80,c),
(157,80,o),
(139,111,o),
(139,157,c),
(139,234,o),
(180,259,o),
(320,259,c),
(320,327,l),
(140,327,o),
(36,296,o),
(36,146,cs),
(36,37,o),
(80,-10,o),
(164,-10,c)
);
}
);
};
layerId = m002;
shapes = (
{
closed = 1;
nodes = (
(333,84,o),
(333,64,cs),
(333,20,o),
(351,-10,o),
(389,-10,cs),
(417,-10,o),
(453.887,-5.022,o),
(479,0,c),
(483,79,l),
(387,98,l),
(431,44,l),
(431,98,o),
(424,147,o),
(424,288,c),
(424,405,o),
(428.88,471.327,o),
(434,500,c),
(429,510,l),
(352,517,l),
(344,510,l),
(327,416,l),
(327,260,ls),
(327,138,o),
(298,85,o),
(240,85,cs),
(179,85,o),
(147,164,o),
(147,277,cs),
(147,390,o),
(175,425,o),
(237,425,cs),
(269,425,o),
(312,412,o),
(351,386,c),
(377,440,l),
(310,440,l),
(330,429,l),
(313,466,o),
(277,520,o),
(214,520,cs),
(118,520,o),
(37,481,o),
(37,258,cs),
(37,79,o),
(94,-10,o),
(207,-10,c),
(287,-10,o),
(326,59,o),
(349,107,c),
(337,122,l),
(334,107,o)
);
}
);
width = 496;
},
{
background = {
shapes = (
{
closed = 1;
nodes = (
(388,-9,o),
(436,-6,o),
(463,0,c),
(467,80,l),
(367,100,l),
(415,37,l),
(415,294,ls),
(415,449,o),
(360,520,o),
(255,520,c),
(165,520,o),
(113,499,o),
(49,471,c),
(48,467,l),
(75,403,l),
(78,403,l),
(121,419,o),
(151,430,o),
(207,430,cs),
(276,430,o),
(316,407,o),
(316,344,cs),
(316,57,ls),
(316,12,o),
(327,-9,o),
(363,-9,cs)
);
},
{
closed = 1;
nodes = (
(242,-10,o),
(280,27,o),
(311,70,c),
(327,70,l),
(327,110,l),
(288,94,o),
(249,80,o),
(200,80,c),
(157,80,o),
(139,111,o),
(139,157,c),
(139,234,o),
(180,259,o),
(320,259,c),
(320,327,l),
(140,327,o),
(36,296,o),
(36,146,cs),
(36,37,o),
(80,-10,o),
(164,-10,c)
);
}
);
};
layerId = m003;
shapes = (
{
closed = 1;
nodes = (
(333,84,o),
(333,64,cs),
(333,20,o),
(351,-10,o),
(389,-10,cs),
(417,-10,o),
(453.887,-5.022,o),
(479,0,c),
(483,79,l),
(387,98,l),
(431,44,l),
(431,98,o),
(424,147,o),
(424,288,c),
(424,405,o),
(428.88,471.327,o),
(434,500,c),
(429,510,l),
(352,517,l),
(344,510,l),
(327,416,l),
(327,260,ls),
(327,138,o),
(298,85,o),
(240,85,cs),
(179,85,o),
(147,164,o),
(147,277,cs),
(147,390,o),
(175,425,o),
(237,425,cs),
(269,425,o),
(312,412,o),
(351,386,c),
(377,440,l),
(310,440,l),
(330,429,l),
(313,466,o),
(277,520,o),
(214,520,cs),
(118,520,o),
(37,481,o),
(37,258,cs),
(37,79,o),
(94,-10,o),
(207,-10,c),
(287,-10,o),
(326,59,o),
(349,107,c),
(337,122,l),
(334,107,o)
);
}
);
width = 496;
},
{
background = {
shapes = (
{
closed = 1;
nodes = (
(388,-9,o),
(436,-6,o),
(463,0,c),
(467,80,l),
(367,100,l),
(415,37,l),
(415,294,ls),
(415,449,o),
(360,520,o),
(255,520,c),
(165,520,o),
(113,499,o),
(49,471,c),
(48,467,l),
(75,403,l),
(78,403,l),
(121,419,o),
(151,430,o),
(207,430,cs),
(276,430,o),
(316,407,o),
(316,344,cs),
(316,57,ls),
(316,12,o),
(327,-9,o),
(363,-9,cs)
);
},
{
closed = 1;
nodes = (
(242,-10,o),
(280,27,o),
(311,70,c),
(327,70,l),
(327,110,l),
(288,94,o),
(249,80,o),
(200,80,c),
(157,80,o),
(139,111,o),
(139,157,c),
(139,234,o),
(180,259,o),
(320,259,c),
(320,327,l),
(140,327,o),
(36,296,o),
(36,146,cs),
(36,37,o),
(80,-10,o),
(164,-10,c)
);
}
);
};
layerId = m004;
shapes = (
{
closed = 1;
nodes = (
(333,84,o),
(333,64,cs),
(333,20,o),
(351,-10,o),
(389,-10,cs),
(417,-10,o),
(453.887,-5.022,o),
(479,0,c),
(483,79,l),
(387,98,l),
(431,44,l),
(431,98,o),
(424,147,o),
(424,288,c),
(424,405,o),
(428.88,471.327,o),
(434,500,c),
(429,510,l),
(352,517,l),
(344,510,l),
(327,416,l),
(327,260,ls),
(327,138,o),
(298,85,o),
(240,85,cs),
(179,85,o),
(147,164,o),
(147,277,cs),
(147,390,o),
(175,425,o),
(237,425,cs),
(269,425,o),
(312,412,o),
(351,386,c),
(377,440,l),
(310,440,l),
(330,429,l),
(313,466,o),
(277,520,o),
(214,520,cs),
(118,520,o),
(37,481,o),
(37,258,cs),
(37,79,o),
(94,-10,o),
(207,-10,c),
(287,-10,o),
(326,59,o),
(349,107,c),
(337,122,l),
(334,107,o)
);
}
);
width = 496;
}
);
}
{
color = (99,255,209,255);
glyphname = h.001;
layers = (
{
background = {
shapes = (
{
closed = 1;
nodes = (
(200,387,o),
(232,430,o),
(310,430,cs),
(361,430,o),
(376,391,o),
(376,275,c),
(376,196,o),
(372,120,o),
(372,65,cs),
(372,13,o),
(403,-10,o),
(443,-10,c),
(466,-10,o),
(497,-5,o),
(524,-1,c),
(528,80,l),
(428,100,l),
(476,37,l),
(476,383,ls),
(476,467,o),
(425,520,o),
(343,520,cs),
(243,520,o),
(180,412,o),
(180,304,c),
(236,440,l),
(184,440,l),
(200,370,l),
(200,698,l),
(200,737,o),
(184,760,o),
(139,760,c),
(110,760,o),
(74,752,o),
(41,744,c),
(48,661,l),
(109,665,l),
(90,712,l),
(90,712,o),
(100,655,o),
(100,275,cs),
(100,77,o),
(90,10,o),
(90,10,c),
(95,0,l),
(205,0,l),
(210,10,l),
(210,10,o),
(200,89,o),
(200,275,cs)
);
}
);
};
layerId = master01;
shapes = (
{
closed = 1;
nodes = (
(476,383,ls),
(476,478,o),
(440,520,o),
(351,520,cs),
(283,520,o),
(244,490,o),
(205,440,c),
(180,440,l),
(180,382,l),
(210,401,o),
(262,430,o),
(317,430,cs),
(369,430,o),
(376,388,o),
(376,275,c),
(376,196,o),
(372,120,o),
(372,65,cs),
(372,13,o),
(400,-10,o),
(443,-10,c),
(466,-10,o),
(497,-5,o),
(524,-1,c),
(528,80,l),
(428,100,l),
(476,37,l)
);
},
{
closed = 1;
nodes = (
(90,702,o),
(100,607,o),
(100,375,cs),
(100,102,o),
(90,10,o),
(90,10,c),
(95,0,l),
(205,0,l),
(210,10,l),
(210,10,o),
(200,119,o),
(200,375,cs),
(200,507,o),
(200,688,o),
(200,688,c),
(200,727,o),
(184,750,o),
(139,750,c),
(110,750,o),
(74,742,o),
(41,734,c),
(48,651,l),
(109,655,l),
(90,702,l)
);
}
);
width = 567;
},
{
background = {
shapes = (
{
closed = 1;
nodes = (
(200,387,o),
(232,430,o),
(310,430,cs),
(361,430,o),
(376,391,o),
(376,275,c),
(376,196,o),
(372,120,o),
(372,65,cs),
(372,13,o),
(403,-10,o),
(443,-10,c),
(466,-10,o),
(497,-5,o),
(524,-1,c),
(528,80,l),
(428,100,l),
(476,37,l),
(476,383,ls),
(476,467,o),
(425,520,o),
(343,520,cs),
(243,520,o),
(180,412,o),
(180,304,c),
(236,440,l),
(184,440,l),
(200,370,l),
(200,698,l),
(200,737,o),
(184,760,o),
(139,760,c),
(110,760,o),
(74,752,o),
(41,744,c),
(48,661,l),
(109,665,l),
(90,712,l),
(90,712,o),
(100,655,o),
(100,275,cs),
(100,77,o),
(90,10,o),
(90,10,c),
(95,0,l),
(205,0,l),
(210,10,l),
(210,10,o),
(200,89,o),
(200,275,cs)
);
}
);
};
layerId = m002;
shapes = (
{
closed = 1;
nodes = (
(476,383,ls),
(476,478,o),
(440,520,o),
(351,520,cs),
(283,520,o),
(244,490,o),
(205,440,c),
(180,440,l),
(180,382,l),
(210,401,o),
(262,430,o),
(317,430,cs),
(369,430,o),
(376,388,o),
(376,275,c),
(376,196,o),
(372,120,o),
(372,65,cs),
(372,13,o),
(400,-10,o),
(443,-10,c),
(466,-10,o),
(497,-5,o),
(524,-1,c),
(528,80,l),
(428,100,l),
(476,37,l)
);
},
{
closed = 1;
nodes = (
(90,702,o),
(100,607,o),
(100,375,cs),
(100,102,o),
(90,10,o),
(90,10,c),
(95,0,l),
(205,0,l),
(210,10,l),
(210,10,o),
(200,119,o),
(200,375,cs),
(200,507,o),
(200,688,o),
(200,688,c),
(200,727,o),
(184,750,o),
(139,750,c),
(110,750,o),
(74,742,o),
(41,734,c),
(48,651,l),
(109,655,l),
(90,702,l)
);
}
);
width = 567;
},
{
background = {
shapes = (
{
closed = 1;
nodes = (
(200,387,o),
(232,430,o),
(310,430,cs),
(361,430,o),
(376,391,o),
(376,275,c),
(376,196,o),
(372,120,o),
(372,65,cs),
(372,13,o),
(403,-10,o),
(443,-10,c),
(466,-10,o),
(497,-5,o),
(524,-1,c),
(528,80,l),
(428,100,l),
(476,37,l),
(476,383,ls),
(476,467,o),
(425,520,o),
(343,520,cs),
(243,520,o),
(180,412,o),
(180,304,c),
(236,440,l),
(184,440,l),
(200,370,l),
(200,698,l),
(200,737,o),
(184,760,o),
(139,760,c),
(110,760,o),
(74,752,o),
(41,744,c),
(48,661,l),
(109,665,l),
(90,712,l),
(90,712,o),
(100,655,o),
(100,275,cs),
(100,77,o),
(90,10,o),
(90,10,c),
(95,0,l),
(205,0,l),
(210,10,l),
(210,10,o),
(200,89,o),
(200,275,cs)
);
}
);
};
layerId = m003;
shapes = (
{
closed = 1;
nodes = (
(476,383,ls),
(476,478,o),
(440,520,o),
(351,520,cs),
(283,520,o),
(244,490,o),
(205,440,c),
(180,440,l),
(180,382,l),
(210,401,o),
(262,430,o),
(317,430,cs),
(369,430,o),
(376,388,o),
(376,275,c),
(376,196,o),
(372,120,o),
(372,65,cs),
(372,13,o),
(400,-10,o),
(443,-10,c),
(466,-10,o),
(497,-5,o),
(524,-1,c),
(528,80,l),
(428,100,l),
(476,37,l)
);
},
{
closed = 1;
nodes = (
(90,702,o),
(100,607,o),
(100,375,cs),
(100,102,o),
(90,10,o),
(90,10,c),
(95,0,l),
(205,0,l),
(210,10,l),
(210,10,o),
(200,119,o),
(200,375,cs),
(200,507,o),
(200,688,o),
(200,688,c),
(200,727,o),
(184,750,o),
(139,750,c),
(110,750,o),
(74,742,o),
(41,734,c),
(48,651,l),
(109,655,l),
(90,702,l)
);
}
);
width = 567;
},
{
background = {
shapes = (
{
closed = 1;
nodes = (
(200,387,o),
(232,430,o),
(310,430,cs),
(361,430,o),
(376,391,o),
(376,275,c),
(376,196,o),
(372,120,o),
(372,65,cs),
(372,13,o),
(403,-10,o),
(443,-10,c),
(466,-10,o),
(497,-5,o),
(524,-1,c),
(528,80,l),
(428,100,l),
(476,37,l),
(476,383,ls),
(476,467,o),
(425,520,o),
(343,520,cs),
(243,520,o),
(180,412,o),
(180,304,c),
(236,440,l),
(184,440,l),
(200,370,l),
(200,698,l),
(200,737,o),
(184,760,o),
(139,760,c),
(110,760,o),
(74,752,o),
(41,744,c),
(48,661,l),
(109,665,l),
(90,712,l),
(90,712,o),
(100,655,o),
(100,275,cs),
(100,77,o),
(90,10,o),
(90,10,c),
(95,0,l),
(205,0,l),
(210,10,l),
(210,10,o),
(200,89,o),
(200,275,cs)
);
}
);
};
layerId = m004;
shapes = (
{
closed = 1;
nodes = (
(476,383,ls),
(476,478,o),
(440,520,o),
(351,520,cs),
(283,520,o),
(244,490,o),
(205,440,c),
(180,440,l),
(180,382,l),
(210,401,o),
(262,430,o),
(317,430,cs),
(369,430,o),
(376,388,o),
(376,275,c),
(376,196,o),
(372,120,o),
(372,65,cs),
(372,13,o),
(400,-10,o),
(443,-10,c),
(466,-10,o),
(497,-5,o),
(524,-1,c),
(528,80,l),
(428,100,l),
(476,37,l)
);
},
{
closed = 1;
nodes = (
(90,702,o),
(100,607,o),
(100,375,cs),
(100,102,o),
(90,10,o),
(90,10,c),
(95,0,l),
(205,0,l),
(210,10,l),
(210,10,o),
(200,119,o),
(200,375,cs),
(200,507,o),
(200,688,o),
(200,688,c),
(200,727,o),
(184,750,o),
(139,750,c),
(110,750,o),
(74,742,o),
(41,734,c),
(48,651,l),
(109,655,l),
(90,702,l)
);
}
);
width = 567;
}
);
}
{
color = (99,255,209,255);
glyphname = n.001;
layers = (
{
anchors = (
{
name = top;
pos = (276,510);
}
);
background = {
shapes = (
{
closed = 1;
nodes = (
(476,383,ls),
(476,478,o),
(440,520,o),
(351,520,cs),
(283,520,o),
(240,492,o),
(205,440,c),
(180,440,l),
(180,383,l),
(210,395,o),
(262,430,o),
(317,430,cs),
(369,430,o),
(376,388,o),
(376,275,c),
(376,196,o),
(372,120,o),
(372,65,cs),
(372,13,o),
(403,-10,o),
(443,-10,c),
(466,-10,o),
(497,-5,o),
(524,-1,c),
(528,80,l),
(428,100,l),
(476,37,l)
);
},
{
closed = 1;
nodes = (
(90,472,o),
(100,415,o),
(100,275,cs),
(100,77,o),
(90,10,o),
(90,10,c),
(95,0,l),
(205,0,l),
(210,10,l),
(210,10,o),
(200,89,o),
(200,275,cs),
(200,352,o),
(200,458,o),
(200,458,c),
(200,497,o),
(184,520,o),
(139,520,c),
(110,520,o),
(74,512,o),
(41,504,c),
(48,421,l),
(109,425,l),
(90,472,l)
);
},
{
closed = 1;
nodes = (
(362,80,o),
(388,128,o),
(388,255,cs),
(388,382,o),
(362,430,o),
(293,430,cs),
(225,430,o),
(199,382,o),
(199,255,cs),
(199,128,o),
(225,80,o),
(293,80,cs)
);
},
{
closed = 1;
nodes = (
(171,-10,o),
(94,92,o),
(94,255,cs),
(94,418,o),
(171,520,o),
(293,520,cs),
(416,520,o),
(493,418,o),
(493,255,cs),
(493,92,o),
(416,-10,o),
(293,-10,cs)
);
}
);
};
layerId = master01;
shapes = (
{
closed = 1;
nodes = (
(475,383,ls),
(475,478,o),
(439,520,o),
(350,520,cs),
(282,520,o),
(239,492,o),
(204,440,c),
(179,440,l),
(179,383,l),
(209,395,o),
(261,430,o),
(316,430,cs),
(368,430,o),
(375,388,o),
(375,275,c),
(375,196,o),
(371,120,o),
(371,65,cs),
(371,13,o),
(402,-10,o),
(442,-10,c),
(465,-10,o),
(496,-5,o),
(523,-1,c),
(527,80,l),
(427,100,l),
(475,37,l)
);
},
{
closed = 1;
nodes = (
(89,472,o),
(99,415,o),
(99,275,cs),
(99,77,o),
(89,10,o),
(89,10,c),
(94,0,l),
(204,0,l),
(209,10,l),
(209,10,o),
(199,89,o),
(199,275,cs),
(199,352,o),
(199,458,o),
(199,458,c),
(199,497,o),
(183,520,o),
(138,520,c),
(109,520,o),
(73,512,o),
(40,504,c),
(47,421,l),
(108,425,l),
(89,472,l)
);
}
);
width = 567;
},
{
anchors = (
{
name = top;
pos = (276,510);
}
);
background = {
shapes = (
{
closed = 1;
nodes = (
(476,383,ls),
(476,478,o),
(440,520,o),
(351,520,cs),
(283,520,o),
(240,492,o),
(205,440,c),
(180,440,l),
(180,383,l),
(210,395,o),
(262,430,o),
(317,430,cs),
(369,430,o),
(376,388,o),
(376,275,c),
(376,196,o),
(372,120,o),
(372,65,cs),
(372,13,o),
(403,-10,o),
(443,-10,c),
(466,-10,o),
(497,-5,o),
(524,-1,c),
(528,80,l),
(428,100,l),
(476,37,l)
);
},
{
closed = 1;
nodes = (
(90,472,o),
(100,415,o),
(100,275,cs),
(100,77,o),
(90,10,o),
(90,10,c),
(95,0,l),
(205,0,l),
(210,10,l),
(210,10,o),
(200,89,o),
(200,275,cs),
(200,352,o),
(200,458,o),
(200,458,c),
(200,497,o),
(184,520,o),
(139,520,c),
(110,520,o),
(74,512,o),
(41,504,c),
(48,421,l),
(109,425,l),
(90,472,l)
);
},
{
closed = 1;
nodes = (
(362,80,o),
(388,128,o),
(388,255,cs),
(388,382,o),
(362,430,o),
(293,430,cs),
(225,430,o),
(199,382,o),
(199,255,cs),
(199,128,o),
(225,80,o),
(293,80,cs)
);
},
{
closed = 1;
nodes = (
(171,-10,o),
(94,92,o),
(94,255,cs),
(94,418,o),
(171,520,o),
(293,520,cs),
(416,520,o),
(493,418,o),
(493,255,cs),
(493,92,o),
(416,-10,o),
(293,-10,cs)
);
}
);
};
layerId = m002;
shapes = (
{
closed = 1;
nodes = (
(475,383,ls),
(475,478,o),
(439,520,o),
(350,520,cs),
(282,520,o),
(239,492,o),
(204,440,c),
(179,440,l),
(179,383,l),
(209,395,o),
(261,430,o),
(316,430,cs),
(368,430,o),
(375,388,o),
(375,275,c),
(375,196,o),
(371,120,o),
(371,65,cs),
(371,13,o),
(402,-10,o),
(442,-10,c),
(465,-10,o),
(496,-5,o),
(523,-1,c),
(527,80,l),
(427,100,l),
(475,37,l)
);
},
{
closed = 1;
nodes = (
(89,472,o),
(99,415,o),
(99,275,cs),
(99,77,o),
(89,10,o),
(89,10,c),
(94,0,l),
(204,0,l),
(209,10,l),
(209,10,o),
(199,89,o),
(199,275,cs),
(199,352,o),
(199,458,o),
(199,458,c),
(199,497,o),
(183,520,o),
(138,520,c),
(109,520,o),
(73,512,o),
(40,504,c),
(47,421,l),
(108,425,l),
(89,472,l)
);
}
);
width = 567;
},
{
anchors = (
{
name = top;
pos = (276,510);
}
);
background = {
shapes = (
{
closed = 1;
nodes = (
(476,383,ls),
(476,478,o),
(440,520,o),
(351,520,cs),
(283,520,o),
(240,492,o),
(205,440,c),
(180,440,l),
(180,383,l),
(210,395,o),
(262,430,o),
(317,430,cs),
(369,430,o),
(376,388,o),
(376,275,c),
(376,196,o),
(372,120,o),
(372,65,cs),
(372,13,o),
(403,-10,o),
(443,-10,c),
(466,-10,o),
(497,-5,o),
(524,-1,c),
(528,80,l),
(428,100,l),
(476,37,l)
);
},
{
closed = 1;
nodes = (
(90,472,o),
(100,415,o),
(100,275,cs),
(100,77,o),
(90,10,o),
(90,10,c),
(95,0,l),
(205,0,l),
(210,10,l),
(210,10,o),
(200,89,o),
(200,275,cs),
(200,352,o),
(200,458,o),
(200,458,c),
(200,497,o),
(184,520,o),
(139,520,c),
(110,520,o),
(74,512,o),
(41,504,c),
(48,421,l),
(109,425,l),
(90,472,l)
);
},
{
closed = 1;
nodes = (
(362,80,o),
(388,128,o),
(388,255,cs),
(388,382,o),
(362,430,o),
(293,430,cs),
(225,430,o),
(199,382,o),
(199,255,cs),
(199,128,o),
(225,80,o),
(293,80,cs)
);
},
{
closed = 1;
nodes = (
(171,-10,o),
(94,92,o),
(94,255,cs),
(94,418,o),
(171,520,o),
(293,520,cs),
(416,520,o),
(493,418,o),
(493,255,cs),
(493,92,o),
(416,-10,o),
(293,-10,cs)
);
}
);
};
layerId = m003;
shapes = (
{
closed = 1;
nodes = (
(475,383,ls),
(475,478,o),
(439,520,o),
(350,520,cs),
(282,520,o),
(239,492,o),
(204,440,c),
(179,440,l),
(179,383,l),
(209,395,o),
(261,430,o),
(316,430,cs),
(368,430,o),
(375,388,o),
(375,275,c),
(375,196,o),
(371,120,o),
(371,65,cs),
(371,13,o),
(402,-10,o),
(442,-10,c),
(465,-10,o),
(496,-5,o),
(523,-1,c),
(527,80,l),
(427,100,l),
(475,37,l)
);
},
{
closed = 1;
nodes = (
(89,472,o),
(99,415,o),
(99,275,cs),
(99,77,o),
(89,10,o),
(89,10,c),
(94,0,l),
(204,0,l),
(209,10,l),
(209,10,o),
(199,89,o),
(199,275,cs),
(199,352,o),
(199,458,o),
(199,458,c),
(199,497,o),
(183,520,o),
(138,520,c),
(109,520,o),
(73,512,o),
(40,504,c),
(47,421,l),
(108,425,l),
(89,472,l)
);
}
);
width = 567;
},
{
anchors = (
{
name = top;
pos = (276,510);
}
);
background = {
shapes = (
{
closed = 1;
nodes = (
(476,383,ls),
(476,478,o),
(440,520,o),
(351,520,cs),
(283,520,o),
(240,492,o),
(205,440,c),
(180,440,l),
(180,383,l),
(210,395,o),
(262,430,o),
(317,430,cs),
(369,430,o),
(376,388,o),
(376,275,c),
(376,196,o),
(372,120,o),
(372,65,cs),
(372,13,o),
(403,-10,o),
(443,-10,c),
(466,-10,o),
(497,-5,o),
(524,-1,c),
(528,80,l),
(428,100,l),
(476,37,l)
);
},
{
closed = 1;
nodes = (
(90,472,o),
(100,415,o),
(100,275,cs),
(100,77,o),
(90,10,o),
(90,10,c),
(95,0,l),
(205,0,l),
(210,10,l),
(210,10,o),
(200,89,o),
(200,275,cs),
(200,352,o),
(200,458,o),
(200,458,c),
(200,497,o),
(184,520,o),
(139,520,c),
(110,520,o),
(74,512,o),
(41,504,c),
(48,421,l),
(109,425,l),
(90,472,l)
);
},
{
closed = 1;
nodes = (
(362,80,o),
(388,128,o),
(388,255,cs),
(388,382,o),
(362,430,o),
(293,430,cs),
(225,430,o),
(199,382,o),
(199,255,cs),
(199,128,o),
(225,80,o),
(293,80,cs)
);
},
{
closed = 1;
nodes = (
(171,-10,o),
(94,92,o),
(94,255,cs),
(94,418,o),
(171,520,o),
(293,520,cs),
(416,520,o),
(493,418,o),
(493,255,cs),
(493,92,o),
(416,-10,o),
(293,-10,cs)
);
}
);
};
layerId = m004;
shapes = (
{
closed = 1;
nodes = (
(475,383,ls),
(475,478,o),
(439,520,o),
(350,520,cs),
(282,520,o),
(239,492,o),
(204,440,c),
(179,440,l),
(179,383,l),
(209,395,o),
(261,430,o),
(316,430,cs),
(368,430,o),
(375,388,o),
(375,275,c),
(375,196,o),
(371,120,o),
(371,65,cs),
(371,13,o),
(402,-10,o),
(442,-10,c),
(465,-10,o),
(496,-5,o),
(523,-1,c),
(527,80,l),
(427,100,l),
(475,37,l)
);
},
{
closed = 1;
nodes = (
(89,472,o),
(99,415,o),
(99,275,cs),
(99,77,o),
(89,10,o),
(89,10,c),
(94,0,l),
(204,0,l),
(209,10,l),
(209,10,o),
(199,89,o),
(199,275,cs),
(199,352,o),
(199,458,o),
(199,458,c),
(199,497,o),
(183,520,o),
(138,520,c),
(109,520,o),
(73,512,o),
(40,504,c),
(47,421,l),
(108,425,l),
(89,472,l)
);
}
);
width = 567;
}
);
}
{
color = (99,255,209,255);
glyphname = n.002;
layers = (
{
anchors = (
{
name = top;
pos = (-219,510);
}
);
layerId = master01;
shapes = (
{
closed = 1;
nodes = (
(236,442,l),
(254,454,o),
(275,460,o),
(300,460,cs),
(371,460,o),
(410,394,o),
(410,275,cs),
(410,196,o),
(406,120,o),
(406,65,cs),
(406,17,o),
(421,-10,o),
(447,-10,c),
(460,-10,o),
(489,-7,o),
(528,-1,c),
(532,35,l),
(432,55,l),
(450,18,l),
(450,383,ls),
(450,471,o),
(398,520,o),
(333,520,cs),
(264,520,o),
(225,498,o),
(200,458,c)
);
},
{
closed = 1;
nodes = (
(200,458,l),
(189,440,o),
(181,419,o),
(174,394,c),
(224,440,l),
(158,440,l),
(174,413,l),
(174,458,ls),
(174,498,o),
(182,520,o),
(143,520,c),
(120,520,o),
(85,515,o),
(45,505,c),
(52,452,l),
(157,455,l),
(129,472,l),
(129,472,o),
(134,415,o),
(134,275,cs),
(134,77,o),
(124,10,o),
(124,10,c),
(129,0,l),
(179,0,l),
(184,10,l),
(184,10,o),
(174,89,o),
(174,275,cs),
(174,357,o),
(196,414,o),
(236,442,c)
);
}
);
width = 577;
},
{
anchors = (
{
name = top;
pos = (-219,510);
}
);
layerId = m002;
shapes = (
{
closed = 1;
nodes = (
(258,422,l),
(270,427,o),
(284,430,o),
(300,430,c),
(362,430,o),
(380,394,o),
(380,275,cs),
(380,196,o),
(376,120,o),
(376,65,cs),
(376,13,o),
(407,-10,o),
(447,-10,c),
(470,-10,o),
(501,-5,o),
(528,-1,c),
(532,80,l),
(432,100,l),
(480,37,l),
(480,383,ls),
(480,477,o),
(442,520,o),
(349,520,c),
(295,520,o),
(255,496,o),
(228,466,c)
);
},
{
closed = 1;
nodes = (
(228,466,l),
(208,443,o),
(194,417,o),
(188,394,c),
(224,440,l),
(188,440,l),
(204,413,l),
(204,458,ls),
(204,499,o),
(188,520,o),
(143,520,c),
(114,520,o),
(78,513,o),
(45,505,c),
(52,422,l),
(113,425,l),
(94,472,l),
(94,472,o),
(104,415,o),
(104,275,cs),
(104,77,o),
(94,10,o),
(94,10,c),
(99,0,l),
(209,0,l),
(214,10,l),
(214,10,o),
(204,89,o),
(204,275,cs),
(204,358,o),
(221,404,o),
(258,422,c)
);
}
);
width = 577;
},
{
anchors = (
{
name = top;
pos = (-219,510);
}
);
layerId = m003;
shapes = (
{
closed = 1;
nodes = (
(236,442,l),
(254,454,o),
(275,460,o),
(300,460,cs),
(371,460,o),
(410,394,o),
(410,275,cs),
(410,196,o),
(406,120,o),
(406,65,cs),
(406,17,o),
(421,-10,o),
(447,-10,c),
(460,-10,o),
(489,-7,o),
(528,-1,c),
(532,35,l),
(432,55,l),
(450,18,l),
(450,383,ls),
(450,471,o),
(398,520,o),
(333,520,cs),
(264,520,o),
(225,498,o),
(200,458,c)
);
},
{
closed = 1;
nodes = (
(200,458,l),
(189,440,o),
(181,419,o),
(174,394,c),
(224,440,l),
(158,440,l),
(174,413,l),
(174,458,ls),
(174,498,o),
(182,520,o),
(143,520,c),
(120,520,o),
(85,515,o),
(45,505,c),
(52,452,l),
(157,455,l),
(129,472,l),
(129,472,o),
(134,415,o),
(134,275,cs),
(134,77,o),
(124,10,o),
(124,10,c),
(129,0,l),
(179,0,l),
(184,10,l),
(184,10,o),
(174,89,o),
(174,275,cs),
(174,357,o),
(196,414,o),
(236,442,c)
);
}
);
width = 577;
},
{
anchors = (
{
name = top;
pos = (-219,510);
}
);
layerId = m004;
shapes = (
{
closed = 1;
nodes = (
(258,422,l),
(270,427,o),
(284,430,o),
(300,430,c),
(362,430,o),
(380,394,o),
(380,275,cs),
(380,196,o),
(376,120,o),
(376,65,cs),
(376,13,o),
(407,-10,o),
(447,-10,c),
(470,-10,o),
(501,-5,o),
(528,-1,c),
(532,80,l),
(432,100,l),
(480,37,l),
(480,383,ls),
(480,477,o),
(442,520,o),
(349,520,c),
(295,520,o),
(255,496,o),
(228,466,c)
);
},
{
closed = 1;
nodes = (
(228,466,l),
(208,443,o),
(194,417,o),
(188,394,c),
(224,440,l),
(188,440,l),
(204,413,l),
(204,458,ls),
(204,499,o),
(188,520,o),
(143,520,c),
(114,520,o),
(78,513,o),
(45,505,c),
(52,422,l),
(113,425,l),
(94,472,l),
(94,472,o),
(104,415,o),
(104,275,cs),
(104,77,o),
(94,10,o),
(94,10,c),
(99,0,l),
(209,0,l),
(214,10,l),
(214,10,o),
(204,89,o),
(204,275,cs),
(204,358,o),
(221,404,o),
(258,422,c)
);
}
);
width = 577;
}
);
}
{
glyphname = v.001;
layers = (
{
background = {
shapes = (
{
closed = 1;
nodes = (
(460,416,ls),
(460,504,o),
(439,555,o),
(350,555,cs),
(290,555,o),
(251,523,o),
(209,465,c),
(184,465,l),
(184,416,l),
(217,434,o),
(266,461,o),
(301,461,c),
(353,461,o),
(360,436,o),
(360,305,c),
(360,226,o),
(350,120,o),
(350,65,cs),
(350,14,o),
(369,-9,o),
(408,-9,cs),
(433,-9,o),
(479,-6,o),
(506,0,c),
(510,80,l),
(412,100,l),
(460,37,l)
);
},
{
closed = 1;
nodes = (
(100,505,o),
(110,391,o),
(110,305,cs),
(110,217,o),
(100,10,o),
(100,10,c),
(105,0,l),
(215,0,l),
(220,10,l),
(220,10,o),
(210,219,o),
(210,305,cs),
(210,391,o),
(205,491,o),
(205,491,c),
(205,530,o),
(190,553,o),
(149,553,c),
(118,553,o),
(81,545,o),
(50,534,c),
(57,454,l),
(119,458,l),
(100,505,l)
);
}
);
};
guides = (
{
pos = (97,482);
userData = {
UFO.identifier = jJ8kmjo9op;
};
}
);
layerId = master01;
shapes = (
{
closed = 1;
nodes = (
(963,262,l),
(907,8,l),
(901,-2,l),
(740,-2,l),
(740,-2,o),
(734,8,o),
(734,8,cs),
(734,8,o),
(696,183,o),
(673,264,cs),
(650,344,o),
(631,400,o),
(631,400,c),
(623,425,o),
(613,433,o),
(600,433,c),
(592,433,o),
(576,429,o),
(576,429,c),
(567,506,l),
(598,511,o),
(624,515,o),
(661,515,cs),
(706,515,o),
(718,487,o),
(727,448,cs),
(727,448,o),
(750,354,o),
(766,289,cs),
(787,206,o),
(835,51,o),
(835,51,c),
(814,51,l),
(814,51,o),
(852,175,o),
(878,289,cs),
(904,405,o),
(915,453,o),
(915,453,c),
(924,492,o),
(935,521,o),
(973,521,cs),
(1010,521,o),
(1036,517,o),
(1067,512,c),
(1058,435,l),
(1058,435,o),
(1042,439,o),
(1034,439,c),
(1021,439,o),
(1011,431,o),
(1003,406,c)
);
},
{
closed = 1;
nodes = (
(405,259,l),
(350,8,l),
(344,-2,l),
(183,-2,l),
(183,-2,o),
(177,8,o),
(177,8,cs),
(177,8,o),
(142,183,o),
(116,264,cs),
(93,336,o),
(33,501,o),
(33,501,cs),
(33,501,o),
(38,510,o),
(38,510,cs),
(38,510,o),
(151,510,o),
(151,510,cs),
(151,510,o),
(157,501,o),
(157,501,cs),
(157,501,o),
(191,356,o),
(209,289,cs),
(231,206,o),
(278,51,o),
(278,51,c),
(257,51,l),
(257,51,o),
(295,175,o),
(321,289,cs),
(347,405,o),
(358,503,o),
(358,503,cs),
(358,503,o),
(365,510,o),
(365,510,cs),
(365,510,o),
(467,510,o),
(467,510,cs),
(467,510,o),
(473,501,o),
(473,501,cs)
);
},
{
closed = 1;
nodes = (
(-197,0,l),
(-327,0,l),
(-438,362,ls),
(-456,421,o),
(-460,433,o),
(-473,433,c),
(-481,433,o),
(-489,431,o),
(-497,429,c),
(-506,506,l),
(-475,511,o),
(-449,515,o),
(-412,515,cs),
(-369,515,o),
(-356,488,o),
(-342,434,cs),
(-246,71,l),
(-257,71,l),
(-179,362,ls),
(-165,412,o),
(-166,433,o),
(-183,433,c),
(-191,433,o),
(-196,432,o),
(-204,430,c),
(-213,506,l),
(-182,512,o),
(-158,515,o),
(-125,515,c),
(-67,515,o),
(-47,475,o),
(-62,426,cs)
);
}
);
width = 519;
},
{
background = {
shapes = (
{
closed = 1;
nodes = (
(460,416,ls),
(460,504,o),
(439,555,o),
(350,555,cs),
(290,555,o),
(251,523,o),
(209,465,c),
(184,465,l),
(184,416,l),
(217,434,o),
(266,461,o),
(301,461,c),
(353,461,o),
(360,436,o),
(360,305,c),
(360,226,o),
(350,120,o),
(350,65,cs),
(350,14,o),
(369,-9,o),
(408,-9,cs),
(433,-9,o),
(479,-6,o),
(506,0,c),
(510,80,l),
(412,100,l),
(460,37,l)
);
},
{
closed = 1;
nodes = (
(100,505,o),
(110,391,o),
(110,305,cs),
(110,217,o),
(100,10,o),
(100,10,c),
(105,0,l),
(215,0,l),
(220,10,l),
(220,10,o),
(210,219,o),
(210,305,cs),
(210,391,o),
(205,491,o),
(205,491,c),
(205,530,o),
(190,553,o),
(149,553,c),
(118,553,o),
(81,545,o),
(50,534,c),
(57,454,l),
(119,458,l),
(100,505,l)
);
}
);
};
guides = (
{
pos = (97,482);
}
);
layerId = m002;
shapes = (
{
closed = 1;
nodes = (
(963,262,l),
(907,8,l),
(901,-2,l),
(740,-2,l),
(740,-2,o),
(734,8,o),
(734,8,cs),
(734,8,o),
(696,183,o),
(673,264,cs),
(650,344,o),
(631,400,o),
(631,400,c),
(623,425,o),
(613,433,o),
(600,433,c),
(592,433,o),
(576,429,o),
(576,429,c),
(567,506,l),
(598,511,o),
(624,515,o),
(661,515,cs),
(706,515,o),
(718,487,o),
(727,448,cs),
(727,448,o),
(750,354,o),
(766,289,cs),
(787,206,o),
(835,51,o),
(835,51,c),
(814,51,l),
(814,51,o),
(852,175,o),
(878,289,cs),
(904,405,o),
(915,453,o),
(915,453,c),
(924,492,o),
(935,521,o),
(973,521,cs),
(1010,521,o),
(1036,517,o),
(1067,512,c),
(1058,435,l),
(1058,435,o),
(1042,439,o),
(1034,439,c),
(1021,439,o),
(1011,431,o),
(1003,406,c)
);
},
{
closed = 1;
nodes = (
(405,259,l),
(350,8,l),
(344,-2,l),
(183,-2,l),
(183,-2,o),
(177,8,o),
(177,8,cs),
(177,8,o),
(142,183,o),
(116,264,cs),
(93,336,o),
(33,501,o),
(33,501,cs),
(33,501,o),
(38,510,o),
(38,510,cs),
(38,510,o),
(151,510,o),
(151,510,cs),
(151,510,o),
(157,501,o),
(157,501,cs),
(157,501,o),
(191,356,o),
(209,289,cs),
(231,206,o),
(278,51,o),
(278,51,c),
(257,51,l),
(257,51,o),
(295,175,o),
(321,289,cs),
(347,405,o),
(358,503,o),
(358,503,cs),
(358,503,o),
(365,510,o),
(365,510,cs),
(365,510,o),
(467,510,o),
(467,510,cs),
(467,510,o),
(473,501,o),
(473,501,cs)
);
},
{
closed = 1;
nodes = (
(-197,0,l),
(-327,0,l),
(-438,362,ls),
(-456,421,o),
(-460,433,o),
(-473,433,c),
(-481,433,o),
(-489,431,o),
(-497,429,c),
(-506,506,l),
(-475,511,o),
(-449,515,o),
(-412,515,cs),
(-369,515,o),
(-356,488,o),
(-342,434,cs),
(-246,71,l),
(-257,71,l),
(-179,362,ls),
(-165,412,o),
(-166,433,o),
(-183,433,c),
(-191,433,o),
(-196,432,o),
(-204,430,c),
(-213,506,l),
(-182,512,o),
(-158,515,o),
(-125,515,c),
(-67,515,o),
(-47,475,o),
(-62,426,cs)
);
}
);
width = 519;
},
{
background = {
shapes = (
{
closed = 1;
nodes = (
(460,416,ls),
(460,504,o),
(439,555,o),
(350,555,cs),
(290,555,o),
(251,523,o),
(209,465,c),
(184,465,l),
(184,416,l),
(217,434,o),
(266,461,o),
(301,461,c),
(353,461,o),
(360,436,o),
(360,305,c),
(360,226,o),
(350,120,o),
(350,65,cs),
(350,14,o),
(369,-9,o),
(408,-9,cs),
(433,-9,o),
(479,-6,o),
(506,0,c),
(510,80,l),
(412,100,l),
(460,37,l)
);
},
{
closed = 1;
nodes = (
(100,505,o),
(110,391,o),
(110,305,cs),
(110,217,o),
(100,10,o),
(100,10,c),
(105,0,l),
(215,0,l),
(220,10,l),
(220,10,o),
(210,219,o),
(210,305,cs),
(210,391,o),
(205,491,o),
(205,491,c),
(205,530,o),
(190,553,o),
(149,553,c),
(118,553,o),
(81,545,o),
(50,534,c),
(57,454,l),
(119,458,l),
(100,505,l)
);
}
);
};
guides = (
{
pos = (97,482);
}
);
layerId = m003;
shapes = (
{
closed = 1;
nodes = (
(963,262,l),
(907,8,l),
(901,-2,l),
(740,-2,l),
(740,-2,o),
(734,8,o),
(734,8,cs),
(734,8,o),
(696,183,o),
(673,264,cs),
(650,344,o),
(631,400,o),
(631,400,c),
(623,425,o),
(613,433,o),
(600,433,c),
(592,433,o),
(576,429,o),
(576,429,c),
(567,506,l),
(598,511,o),
(624,515,o),
(661,515,cs),
(706,515,o),
(718,487,o),
(727,448,cs),
(727,448,o),
(750,354,o),
(766,289,cs),
(787,206,o),
(835,51,o),
(835,51,c),
(814,51,l),
(814,51,o),
(852,175,o),
(878,289,cs),
(904,405,o),
(915,453,o),
(915,453,c),
(924,492,o),
(935,521,o),
(973,521,cs),
(1010,521,o),
(1036,517,o),
(1067,512,c),
(1058,435,l),
(1058,435,o),
(1042,439,o),
(1034,439,c),
(1021,439,o),
(1011,431,o),
(1003,406,c)
);
},
{
closed = 1;
nodes = (
(405,259,l),
(350,8,l),
(344,-2,l),
(183,-2,l),
(183,-2,o),
(177,8,o),
(177,8,cs),
(177,8,o),
(142,183,o),
(116,264,cs),
(93,336,o),
(33,501,o),
(33,501,cs),
(33,501,o),
(38,510,o),
(38,510,cs),
(38,510,o),
(151,510,o),
(151,510,cs),
(151,510,o),
(157,501,o),
(157,501,cs),
(157,501,o),
(191,356,o),
(209,289,cs),
(231,206,o),
(278,51,o),
(278,51,c),
(257,51,l),
(257,51,o),
(295,175,o),
(321,289,cs),
(347,405,o),
(358,503,o),
(358,503,cs),
(358,503,o),
(365,510,o),
(365,510,cs),
(365,510,o),
(467,510,o),
(467,510,cs),
(467,510,o),
(473,501,o),
(473,501,cs)
);
},
{
closed = 1;
nodes = (
(-197,0,l),
(-327,0,l),
(-438,362,ls),
(-456,421,o),
(-460,433,o),
(-473,433,c),
(-481,433,o),
(-489,431,o),
(-497,429,c),
(-506,506,l),
(-475,511,o),
(-449,515,o),
(-412,515,cs),
(-369,515,o),
(-356,488,o),
(-342,434,cs),
(-246,71,l),
(-257,71,l),
(-179,362,ls),
(-165,412,o),
(-166,433,o),
(-183,433,c),
(-191,433,o),
(-196,432,o),
(-204,430,c),
(-213,506,l),
(-182,512,o),
(-158,515,o),
(-125,515,c),
(-67,515,o),
(-47,475,o),
(-62,426,cs)
);
}
);
width = 519;
},
{
background = {
shapes = (
{
closed = 1;
nodes = (
(460,416,ls),
(460,504,o),
(439,555,o),
(350,555,cs),
(290,555,o),
(251,523,o),
(209,465,c),
(184,465,l),
(184,416,l),
(217,434,o),
(266,461,o),
(301,461,c),
(353,461,o),
(360,436,o),
(360,305,c),
(360,226,o),
(350,120,o),
(350,65,cs),
(350,14,o),
(369,-9,o),
(408,-9,cs),
(433,-9,o),
(479,-6,o),
(506,0,c),
(510,80,l),
(412,100,l),
(460,37,l)
);
},
{
closed = 1;
nodes = (
(100,505,o),
(110,391,o),
(110,305,cs),
(110,217,o),
(100,10,o),
(100,10,c),
(105,0,l),
(215,0,l),
(220,10,l),
(220,10,o),
(210,219,o),
(210,305,cs),
(210,391,o),
(205,491,o),
(205,491,c),
(205,530,o),
(190,553,o),
(149,553,c),
(118,553,o),
(81,545,o),
(50,534,c),
(57,454,l),
(119,458,l),
(100,505,l)
);
}
);
};
guides = (
{
pos = (97,482);
}
);
layerId = m004;
shapes = (
{
closed = 1;
nodes = (
(963,262,l),
(907,8,l),
(901,-2,l),
(740,-2,l),
(740,-2,o),
(734,8,o),
(734,8,cs),
(734,8,o),
(696,183,o),
(673,264,cs),
(650,344,o),
(631,400,o),
(631,400,c),
(623,425,o),
(613,433,o),
(600,433,c),
(592,433,o),
(576,429,o),
(576,429,c),
(567,506,l),
(598,511,o),
(624,515,o),
(661,515,cs),
(706,515,o),
(718,487,o),
(727,448,cs),
(727,448,o),
(750,354,o),
(766,289,cs),
(787,206,o),
(835,51,o),
(835,51,c),
(814,51,l),
(814,51,o),
(852,175,o),
(878,289,cs),
(904,405,o),
(915,453,o),
(915,453,c),
(924,492,o),
(935,521,o),
(973,521,cs),
(1010,521,o),
(1036,517,o),
(1067,512,c),
(1058,435,l),
(1058,435,o),
(1042,439,o),
(1034,439,c),
(1021,439,o),
(1011,431,o),
(1003,406,c)
);
},
{
closed = 1;
nodes = (
(405,259,l),
(350,8,l),
(344,-2,l),
(183,-2,l),
(183,-2,o),
(177,8,o),
(177,8,cs),
(177,8,o),
(142,183,o),
(116,264,cs),
(93,336,o),
(33,501,o),
(33,501,cs),
(33,501,o),
(38,510,o),
(38,510,cs),
(38,510,o),
(151,510,o),
(151,510,cs),
(151,510,o),
(157,501,o),
(157,501,cs),
(157,501,o),
(191,356,o),
(209,289,cs),
(231,206,o),
(278,51,o),
(278,51,c),
(257,51,l),
(257,51,o),
(295,175,o),
(321,289,cs),
(347,405,o),
(358,503,o),
(358,503,cs),
(358,503,o),
(365,510,o),
(365,510,cs),
(365,510,o),
(467,510,o),
(467,510,cs),
(467,510,o),
(473,501,o),
(473,501,cs)
);
},
{
closed = 1;
nodes = (
(-197,0,l),
(-327,0,l),
(-438,362,ls),
(-456,421,o),
(-460,433,o),
(-473,433,c),
(-481,433,o),
(-489,431,o),
(-497,429,c),
(-506,506,l),
(-475,511,o),
(-449,515,o),
(-412,515,cs),
(-369,515,o),
(-356,488,o),
(-342,434,cs),
(-246,71,l),
(-257,71,l),
(-179,362,ls),
(-165,412,o),
(-166,433,o),
(-183,433,c),
(-191,433,o),
(-196,432,o),
(-204,430,c),
(-213,506,l),
(-182,512,o),
(-158,515,o),
(-125,515,c),
(-67,515,o),
(-47,475,o),
(-62,426,cs)
);
}
);
width = 519;
}
);
}
